<svg xmlns="http://www.w3.org/2000/svg" width="1024" height="1024" viewBox="0 0 1024 1024">
<g>
<path d="M 843.84,612.54 L 844.70,612.55 L 846.18,612.60 L 847.60,612.67 L 849.82,612.97 L 850.87,613.16 L 852.80,613.78 L 856.02,615.21 L 857.54,615.96 L 860.91,618.09 L 861.72,618.64 L 863.18,619.72 L 864.92,621.21 L 865.76,622.02 L 867.43,623.94 L 868.25,624.92 L 869.71,626.89 L 870.38,627.85 L 871.36,629.52 L 871.56,629.90 L 871.83,630.54 L 872.00,631.28 L 872.00,631.33 L 871.64,631.69 L 871.41,631.91 L 870.63,632.58 L 870.19,632.94 L 869.05,633.87 L 868.44,634.36 L 867.00,635.49 L 865.50,636.67 L 861.86,639.47 L 859.97,640.91 L 855.92,643.95 L 853.90,645.47 L 849.94,648.40 L 848.02,649.81 L 844.64,652.25 L 843.85,652.82 L 842.47,653.79 L 841.82,654.25 L 840.75,654.97 L 840.26,655.30 L 839.57,655.73 L 839.01,656.00 L 838.94,656.00 L 838.60,655.72 L 838.41,655.53 L 837.88,654.94 L 837.31,654.29 L 835.82,652.38 L 835.06,651.38 L 833.53,649.23 L 831.70,646.39 L 831.60,646.23 L 832.05,645.48 L 832.36,645.04 L 833.51,643.83 L 834.17,643.18 L 835.91,641.64 L 839.03,639.10 L 840.12,638.25 L 842.12,636.63 L 843.08,635.84 L 844.66,634.47 L 845.38,633.83 L 846.37,632.85 L 847.00,632.01 L 847.00,631.88 L 846.71,631.57 L 846.52,631.41 L 845.91,631.06 L 843.28,630.07 L 841.80,629.66 L 838.93,629.58 L 837.53,629.65 L 834.91,630.44 L 833.63,630.93 L 831.35,632.45 L 830.27,633.29 L 828.43,635.41 L 827.57,636.53 L 826.28,639.11 L 825.71,640.45 L 825.07,643.36 L 824.84,644.84 L 824.95,647.95 L 826.06,652.68 L 826.47,653.76 L 827.90,655.97 L 828.69,657.05 L 830.68,659.07 L 831.71,660.02 L 833.95,661.57 L 837.27,663.07 L 838.28,663.34 L 840.38,663.53 L 841.43,663.57 L 843.58,663.34 L 844.65,663.18 L 846.75,662.56 L 847.79,662.21 L 849.77,661.27 L 850.73,660.76 L 852.50,659.53 L 853.34,658.88 L 854.80,657.41 L 855.49,656.64 L 856.56,654.98 L 857.64,652.31 L 857.80,651.67 L 858.13,650.85 L 858.35,650.50 L 859.21,650.17 L 859.49,650.12 L 860.23,650.07 L 860.63,650.06 L 861.69,650.10 L 862.26,650.13 L 863.71,650.24 L 866.38,650.47 L 867.49,650.57 L 869.58,650.78 L 870.58,650.89 L 872.30,651.10 L 873.10,651.20 L 874.26,651.38 L 875.17,651.61 L 875.26,651.66 L 875.28,652.24 L 875.26,652.60 L 875.06,653.67 L 874.94,654.26 L 874.56,655.68 L 873.83,658.05 L 873.15,660.06 L 871.03,663.96 L 869.87,665.87 L 866.95,669.38 L 865.41,671.07 L 861.91,673.95 L 856.22,677.32 L 854.57,678.06 L 850.62,679.20 L 848.58,679.71 L 844.28,680.33 L 842.14,680.57 L 838.04,680.62 L 837.05,680.59 L 835.22,680.42 L 834.33,680.31 L 832.73,679.97 L 830.78,679.48 L 827.17,678.10 L 825.42,677.35 L 822.24,675.48 L 820.70,674.48 L 817.96,672.14 L 816.65,670.92 L 814.39,668.14 L 813.32,666.71 L 811.54,663.53 L 810.72,661.90 L 809.47,658.36 L 808.91,656.54 L 808.20,652.66 L 807.77,646.50 L 807.77,644.70 L 808.07,641.26 L 808.26,639.57 L 808.95,636.35 L 809.35,634.77 L 810.42,631.80 L 811.00,630.35 L 812.44,627.63 L 813.20,626.31 L 815.00,623.87 L 815.94,622.69 L 818.09,620.55 L 819.21,619.52 L 821.69,617.70 L 825.79,615.33 L 827.04,614.73 L 829.10,613.87 L 830.11,613.50 L 832.15,613.03 L 833.22,612.83 L 835.82,612.64 L 836.53,612.60 L 838.16,612.56 L 841.00,612.53 L 842.04,612.53 M 667.89,615.89 L 670.26,615.93 L 671.31,616.00 L 673.27,616.17 L 674.03,616.31 L 675.38,616.64 L 675.75,616.87 L 677.37,617.56 L 677.73,617.58 L 677.84,617.52 L 678.00,617.35 L 678.00,617.20 L 677.67,616.53 L 677.76,616.58 L 678.65,617.11 L 680.44,618.32 L 681.31,618.93 L 682.93,620.21 L 684.92,622.03 L 685.72,622.87 L 687.06,624.45 L 687.69,625.23 L 688.72,626.84 L 689.20,627.67 L 689.97,629.51 L 690.32,630.48 L 690.86,632.75 L 691.10,633.95 L 691.45,636.84 L 691.60,638.38 L 691.79,642.08 L 691.83,643.07 L 691.89,645.22 L 691.92,646.34 L 691.96,648.76 L 691.97,650.01 L 691.99,652.74 L 692.00,657.18 L 692.00,679.00 L 675.00,679.00 L 675.00,657.58 L 674.99,655.05 L 674.99,653.83 L 674.97,651.58 L 674.94,649.40 L 674.83,645.79 L 674.76,644.10 L 674.55,641.35 L 674.42,640.08 L 674.06,638.05 L 673.87,637.11 L 673.34,635.65 L 673.05,634.98 L 672.33,633.94 L 671.93,633.45 L 670.97,632.68 L 669.23,631.65 L 668.17,631.11 L 666.03,630.34 L 664.97,630.01 L 662.85,629.64 L 661.81,629.50 L 659.77,629.51 L 658.76,629.57 L 656.83,629.96 L 656.16,630.13 L 657.07,629.71 L 658.06,629.12 L 658.29,628.88 L 658.58,628.42 L 658.48,628.23 L 658.10,627.87 L 657.68,627.71 L 656.13,627.76 L 654.87,628.22 L 654.25,628.58 L 653.08,629.36 L 652.67,629.79 L 652.00,630.66 L 652.00,631.04 L 652.08,631.25 L 652.22,631.30 L 652.56,631.37 L 652.81,631.34 L 653.68,631.17 L 653.26,631.38 L 651.69,632.49 L 650.93,633.08 L 649.61,634.54 L 647.96,637.08 L 647.52,637.94 L 646.90,639.47 L 646.63,640.23 L 646.30,641.77 L 646.17,642.57 L 646.09,644.41 L 646.20,647.79 L 646.25,648.55 L 646.35,649.83 L 646.40,650.43 L 646.53,651.45 L 646.67,652.42 L 647.16,653.87 L 647.47,654.55 L 648.46,655.83 L 650.77,658.12 L 651.72,659.01 L 653.17,660.23 L 653.87,660.76 L 655.15,661.39 L 655.81,661.65 L 657.37,661.89 L 660.53,662.00 L 662.07,662.00 L 665.05,661.70 L 665.74,661.60 L 666.87,661.37 L 668.07,660.96 L 668.53,660.72 L 669.15,660.58 L 669.28,660.60 L 669.49,660.79 L 669.58,660.91 L 669.72,661.35 L 669.79,661.61 L 669.87,662.37 L 669.91,662.79 L 669.96,663.91 L 669.98,664.52 L 669.99,666.07 L 670.00,668.91 L 670.00,670.14 L 669.94,672.43 L 669.90,673.52 L 669.78,675.38 L 669.71,676.24 L 669.54,677.45 L 669.25,678.34 L 669.03,678.47 L 668.23,678.71 L 667.77,678.82 L 666.57,679.00 L 665.30,679.17 L 662.06,679.36 L 660.41,679.42 L 657.11,679.37 L 656.33,679.34 L 654.92,679.22 L 654.24,679.15 L 653.13,678.96 L 651.81,678.69 L 649.25,677.90 L 647.98,677.47 L 645.56,676.38 L 644.37,675.80 L 642.12,674.45 L 641.02,673.74 L 638.99,672.15 L 638.00,671.32 L 636.22,669.52 L 635.37,668.60 L 633.87,666.62 L 633.16,665.62 L 631.98,663.49 L 630.62,660.17 L 630.13,658.62 L 629.38,654.98 L 629.06,653.11 L 628.68,649.24 L 628.54,647.33 L 628.55,646.80 L 628.74,648.65 L 628.94,650.67 L 629.01,651.50 L 629.12,652.42 L 629.18,652.61 L 629.32,652.79 L 629.41,652.59 L 629.60,652.00 L 629.72,651.41 L 629.98,650.01 L 630.13,649.00 L 630.81,644.16 L 631.00,642.61 L 631.07,641.95 L 631.20,640.70 L 631.23,640.25 L 631.58,637.95 L 631.74,637.42 L 631.83,637.26 L 632.00,637.00 L 632.08,637.00 L 632.53,636.60 L 633.00,635.98 L 633.31,635.53 L 633.95,634.53 L 634.30,633.93 L 635.04,632.68 L 635.41,631.99 L 637.78,628.55 L 639.86,626.32 L 641.19,625.19 L 644.06,622.93 L 645.83,621.74 L 647.67,620.55 L 648.68,619.93 L 650.77,618.68 L 651.91,618.03 L 653.88,617.30 L 655.70,616.88 L 656.79,616.70 L 659.07,616.38 L 660.31,616.26 L 662.84,616.05 L 664.12,615.98 L 666.68,615.89 M 925.00,630.00 L 912.41,630.00 L 910.36,630.01 L 909.38,630.02 L 907.75,630.06 L 906.99,630.08 L 905.72,630.15 L 905.14,630.19 L 904.20,630.30 L 903.33,630.42 L 902.34,630.79 L 901.59,631.63 L 901.36,632.24 L 901.49,633.37 L 901.58,633.65 L 901.95,634.23 L 902.17,634.53 L 902.81,635.15 L 903.17,635.47 L 904.12,636.15 L 904.63,636.51 L 905.91,637.28 L 906.60,637.68 L 908.24,638.57 L 911.14,640.07 L 912.66,640.84 L 915.40,642.36 L 916.72,643.13 L 919.06,644.67 L 920.18,645.44 L 922.13,646.99 L 923.06,647.77 L 924.63,649.35 L 925.37,650.14 L 926.56,651.74 L 927.10,652.54 L 927.92,654.17 L 928.28,654.99 L 928.73,656.66 L 928.99,659.22 L 928.99,660.23 L 928.71,662.26 L 928.52,663.27 L 927.90,665.26 L 927.55,666.24 L 926.63,668.14 L 926.14,669.07 L 924.97,670.82 L 924.35,671.67 L 922.96,673.22 L 922.24,673.96 L 920.67,675.25 L 919.86,675.86 L 918.15,676.83 L 915.48,677.88 L 915.20,677.96 L 914.39,678.11 L 913.94,678.18 L 912.81,678.31 L 911.61,678.45 L 908.48,678.67 L 906.83,678.77 L 903.10,678.91 L 897.25,678.99 L 883.00,679.00 L 883.00,663.00 L 896.12,663.00 L 898.19,662.98 L 899.17,662.97 L 900.87,662.93 L 901.68,662.91 L 903.05,662.83 L 903.69,662.79 L 904.77,662.68 L 905.79,662.57 L 907.13,662.20 L 908.43,661.43 L 908.77,661.09 L 909.18,660.35 L 909.34,659.98 L 909.39,659.19 L 909.36,658.79 L 909.03,657.94 L 908.82,657.51 L 908.13,656.61 L 907.73,656.15 L 906.67,655.20 L 906.09,654.71 L 904.66,653.70 L 903.90,653.19 L 902.11,652.13 L 899.00,650.47 L 897.98,649.96 L 896.16,648.99 L 895.28,648.51 L 893.71,647.57 L 892.20,646.63 L 889.82,644.76 L 888.72,643.81 L 887.00,641.78 L 884.91,638.32 L 884.41,637.29 L 883.76,635.72 L 883.49,634.98 L 883.26,633.66 L 883.19,632.98 L 883.34,631.43 L 883.95,628.35 L 884.31,626.73 L 885.60,623.76 L 886.32,622.33 L 888.24,619.86 L 889.27,618.71 L 891.69,616.89 L 895.73,615.06 L 895.99,614.99 L 896.75,614.85 L 897.16,614.78 L 898.20,614.65 L 899.30,614.53 L 902.14,614.32 L 903.64,614.22 L 907.00,614.09 L 912.25,614.01 L 925.00,614.00 M 585.09,646.19 L 585.11,647.35 L 585.17,649.60 L 585.20,650.60 L 585.26,652.50 L 585.29,653.31 L 585.37,654.81 L 585.41,655.39 L 585.49,656.44 L 585.53,656.76 L 585.62,657.29 L 585.67,657.33 L 586.29,657.84 L 586.69,657.90 L 587.54,657.89 L 588.14,657.67 L 589.48,657.06 L 590.40,656.50 L 591.38,655.89 L 591.95,655.52 L 593.14,654.72 L 593.83,654.25 L 596.05,652.83 L 597.34,652.11 L 597.87,651.88 L 598.82,651.49 L 599.13,651.45 L 599.64,651.45 L 599.69,651.61 L 600.38,652.95 L 601.11,654.09 L 601.50,654.61 L 602.27,655.44 L 602.61,655.49 L 602.71,655.19 L 602.87,654.36 L 602.91,653.56 L 602.94,652.69 L 602.95,652.14 L 602.96,650.97 L 602.97,650.27 L 603.40,644.96 L 604.07,641.75 L 604.58,640.36 L 604.71,640.05 L 604.23,641.83 L 603.91,643.28 L 603.49,646.86 L 603.39,647.81 L 603.26,649.91 L 603.19,650.99 L 603.11,653.36 L 603.07,654.57 L 603.02,657.22 L 603.00,661.52 L 603.00,679.00 L 585.00,679.00 L 585.00,635.33 L 585.05,643.67 M 733.76,612.27 L 735.47,612.39 L 738.65,613.16 L 740.21,613.63 L 743.28,615.17 L 748.03,618.41 L 752.20,621.72 L 754.85,619.25 L 755.71,618.46 L 757.56,617.07 L 758.51,616.41 L 760.54,615.28 L 761.57,614.75 L 763.73,613.89 L 764.82,613.50 L 767.09,612.92 L 768.23,612.66 L 770.57,612.37 L 771.75,612.26 L 774.13,612.26 L 775.32,612.30 L 777.71,612.60 L 781.27,613.39 L 782.93,613.87 L 785.84,615.13 L 787.24,615.81 L 789.65,617.50 L 790.80,618.40 L 792.76,620.56 L 795.28,624.38 L 795.79,625.34 L 796.50,627.27 L 796.65,627.81 L 796.90,629.12 L 797.02,629.83 L 797.20,631.63 L 797.28,632.60 L 797.42,635.06 L 797.48,636.39 L 797.58,639.71 L 797.60,640.60 L 797.64,642.57 L 797.66,643.59 L 797.70,645.84 L 797.72,647.01 L 797.76,649.56 L 797.82,653.75 L 798.18,679.00 L 780.17,679.00 L 779.83,657.25 L 779.81,655.75 L 779.76,653.01 L 779.74,651.68 L 779.69,649.26 L 779.66,648.09 L 779.60,645.98 L 779.56,644.96 L 779.48,643.13 L 779.40,641.36 L 779.16,638.57 L 779.02,637.28 L 778.65,635.32 L 778.44,634.43 L 777.89,633.11 L 777.59,632.52 L 776.83,631.67 L 776.42,631.29 L 775.39,630.73 L 773.52,630.01 L 772.54,629.68 L 770.83,629.37 L 770.00,629.28 L 768.47,629.47 L 767.71,629.64 L 766.15,630.37 L 763.58,632.11 L 761.00,634.15 L 761.00,679.00 L 743.20,679.00 L 742.83,657.25 L 742.80,655.75 L 742.75,653.01 L 742.73,651.68 L 742.67,649.27 L 742.64,648.10 L 742.57,645.98 L 742.54,644.96 L 742.45,643.12 L 742.37,641.34 L 742.12,638.54 L 741.98,637.25 L 741.61,635.28 L 741.40,634.38 L 740.86,633.07 L 740.57,632.48 L 739.82,631.66 L 739.42,631.29 L 738.43,630.77 L 736.61,630.16 L 735.46,629.84 L 733.33,629.61 L 732.30,629.56 L 730.44,629.86 L 729.55,630.08 L 727.98,630.91 L 725.98,632.76 L 725.52,633.34 L 724.90,634.70 L 724.76,635.10 L 724.55,636.15 L 724.45,636.72 L 724.30,638.22 L 724.24,639.04 L 724.14,641.13 L 724.10,642.26 L 724.05,645.10 L 724.03,646.63 L 724.01,650.36 L 724.01,651.36 L 724.00,653.55 L 724.00,657.13 L 724.00,679.00 L 706.00,679.00 L 706.02,653.75 L 706.02,652.35 L 706.03,649.78 L 706.03,648.52 L 706.04,646.22 L 706.05,643.98 L 706.09,640.25 L 706.12,638.49 L 706.19,635.61 L 706.23,634.25 L 706.35,632.07 L 706.41,631.05 L 706.58,629.42 L 706.68,628.65 L 706.91,627.42 L 707.88,624.50 L 708.28,623.62 L 709.26,622.00 L 709.77,621.22 L 710.97,619.79 L 711.59,619.10 L 713.01,617.85 L 713.74,617.26 L 715.38,616.20 L 716.23,615.70 L 718.09,614.84 L 719.05,614.43 L 721.14,613.75 L 722.21,613.43 L 724.52,612.94 L 728.25,612.41 L 730.23,612.21 M 630.23,634.77 L 630.02,635.65 L 629.90,636.17 L 629.38,638.40 L 629.12,639.50 L 628.67,642.25 L 628.75,641.39 L 629.11,639.37 L 629.37,638.31 L 629.90,636.13 L 630.02,635.63 L 630.23,634.76 L 630.42,633.98 M 631.23,631.32 L 631.30,631.13 L 631.30,631.13 M 631.40,630.88 L 631.65,630.24 L 631.65,630.24 M 632.28,629.01 L 632.54,628.49 L 632.54,628.49 M 632.72,628.16 L 633.49,626.74 L 633.49,626.74 M 635.66,623.93 L 636.06,623.42 L 636.06,623.42 M 636.52,622.88 L 637.44,621.80 L 637.44,621.80 M 653.08,612.87 L 652.10,613.06 L 650.22,613.52 L 649.30,613.89 L 647.42,614.70 L 646.31,615.28 L 640.75,618.90 L 638.21,621.13 L 640.74,618.90 L 646.31,615.26 L 647.44,614.67 L 649.33,613.85 L 650.26,613.48 L 652.16,613.03 L 653.16,612.84 L 654.66,612.73 M 663.11,612.60 L 663.91,612.62 L 665.32,612.68 L 666.68,612.76 L 668.90,613.07 L 669.96,613.26 L 671.96,613.88 L 672.33,614.03 L 672.23,614.01 L 668.53,613.19 L 666.44,612.94 L 662.84,612.60 M 907.98,415.50 L 909.35,415.80 L 912.02,416.75 L 913.33,417.27 L 915.65,418.58 L 918.37,420.82 L 918.83,421.33 L 919.38,422.09 L 919.58,422.46 L 919.56,423.20 L 919.47,423.61 L 918.78,424.72 L 918.57,425.04 L 918.00,425.81 L 916.92,427.21 L 916.01,428.39 L 914.52,430.34 L 914.20,430.76 L 913.74,431.37 L 913.39,431.84 L 913.35,431.88 L 913.07,431.81 L 912.90,431.74 L 912.39,431.47 L 910.33,430.10 L 909.14,429.23 L 906.90,428.09 L 905.81,427.62 L 903.78,427.29 L 902.80,427.23 L 901.00,427.71 L 898.57,429.34 L 897.73,430.18 L 896.68,431.99 L 896.26,432.91 L 896.04,434.80 L 896.04,435.75 L 896.65,437.61 L 898.51,440.24 L 899.24,440.97 L 900.87,442.06 L 901.73,442.55 L 903.86,443.22 L 905.01,443.50 L 907.95,443.82 L 908.75,443.89 L 910.56,443.96 L 913.62,444.00 L 920.00,444.00 L 920.00,455.00 L 875.00,455.00 L 875.00,444.00 L 882.37,444.00 L 884.44,443.82 L 885.36,443.71 L 886.49,443.33 L 886.93,443.11 L 887.06,442.55 L 887.02,442.40 L 886.76,442.07 L 886.06,441.54 L 885.93,441.46 L 885.64,440.96 L 885.49,440.67 L 885.20,439.83 L 884.46,436.55 L 884.24,435.14 L 884.32,432.38 L 884.43,431.02 L 885.11,428.42 L 885.52,427.15 L 886.74,424.78 L 887.41,423.63 L 889.10,421.56 L 890.00,420.57 L 892.11,418.87 L 893.21,418.07 L 895.66,416.81 L 896.92,416.25 L 899.65,415.50 L 904.00,415.04 L 905.26,415.04 M 669.84,338.75 L 670.71,340.64 L 671.35,342.18 L 671.68,343.01 L 672.97,346.49 L 673.44,348.00 L 674.77,352.25 L 675.13,353.40 L 675.26,353.83 L 675.49,354.58 L 675.55,354.75 L 675.93,355.60 L 676.27,355.77 L 677.06,355.94 L 677.66,355.76 L 679.01,355.20 L 679.95,354.64 L 680.93,354.02 L 681.50,353.64 L 682.69,352.82 L 683.36,352.33 L 687.34,349.74 L 688.43,349.14 L 688.84,348.96 L 689.56,348.67 L 689.73,348.67 L 690.63,348.42 L 691.00,348.06 L 691.00,347.83 L 691.42,347.24 L 692.04,347.00 L 692.43,347.00 L 693.07,346.76 L 693.25,346.29 L 693.21,345.85 L 693.03,344.81 L 692.80,344.02 L 692.43,342.78 L 692.66,343.50 L 693.78,347.50 L 694.31,349.51 L 695.15,353.55 L 695.94,357.60 L 696.70,365.75 L 696.95,369.82 L 696.68,377.94 L 696.41,381.99 L 695.11,389.99 L 694.34,393.96 L 692.03,401.72 L 690.76,405.56 L 687.47,412.99 L 686.59,414.82 L 684.65,418.40 L 683.65,420.17 L 681.46,423.63 L 680.34,425.35 L 677.92,428.67 L 674.03,433.50 L 673.44,434.19 L 672.31,435.46 L 671.76,436.06 L 670.81,437.08 L 670.36,437.55 L 669.69,438.22 L 669.11,438.68 L 669.03,438.71 L 668.52,438.46 L 668.21,438.30 L 667.35,437.73 L 666.89,437.41 L 665.78,436.60 L 665.21,436.17 L 663.98,435.18 L 662.74,434.17 L 659.92,431.95 L 659.25,431.43 L 658.02,430.48 L 656.52,429.36 L 653.59,427.22 L 657.82,421.73 L 659.41,419.67 L 662.51,415.04 L 664.04,412.66 L 666.86,407.66 L 668.22,405.15 L 670.58,400.16 L 673.36,393.07 L 673.72,391.96 L 674.41,389.34 L 674.74,387.98 L 675.35,385.00 L 675.94,381.95 L 676.79,375.53 L 676.96,373.96 L 677.21,370.96 L 677.32,369.50 L 677.41,366.87 L 677.43,365.62 L 677.33,363.54 L 676.96,361.24 L 676.84,360.87 L 676.50,359.66 L 676.31,358.99 L 675.88,357.36 L 674.48,351.89 L 674.25,350.98 L 673.66,348.91 L 673.34,347.86 L 672.63,345.71 L 672.27,344.64 L 671.52,342.65 L 670.47,340.14 L 669.67,338.41 M 608.00,404.00 L 561.25,403.98 L 516.95,403.95 L 557.00,403.61 L 565.60,403.53 L 571.12,403.47 L 573.74,403.43 L 578.86,403.36 L 581.23,403.33 L 585.84,403.25 L 587.90,403.21 L 591.85,403.14 L 593.54,403.10 L 596.72,403.02 L 597.98,402.98 L 600.27,402.90 L 601.03,402.87 L 601.73,402.83 L 601.97,402.81 L 602.40,402.78 L 602.50,402.76 L 604.99,402.70 L 606.41,402.98 L 606.75,403.26 L 607.09,403.17 L 607.28,402.69 L 607.37,402.21 L 607.52,401.07 L 607.58,400.23 L 607.70,398.33 L 607.75,397.07 L 607.83,394.32 L 607.87,392.58 L 607.92,388.87 L 607.94,386.61 L 607.96,384.29 L 607.97,383.03 L 607.98,380.42 L 607.99,379.01 L 607.99,376.11 L 608.00,374.55 L 608.00,371.34 M 645.00,404.00 L 644.00,404.00 L 644.23,403.22 L 644.37,401.93 L 644.43,400.91 L 644.55,398.60 L 644.60,397.07 L 644.70,393.77 L 644.74,391.75 L 644.82,387.46 L 644.86,384.96 L 644.91,379.70 L 644.94,376.72 L 644.97,370.51 L 644.98,367.06 L 645.00,359.92 M 783.00,345.10 L 786.25,342.67 L 788.01,341.35 L 791.89,339.13 L 793.89,338.08 L 798.17,336.40 L 800.35,335.63 L 804.92,334.50 L 807.23,334.01 L 811.99,333.44 L 814.38,333.23 L 819.21,333.25 L 821.62,333.32 L 826.42,333.92 L 828.81,334.29 L 833.47,335.48 L 840.18,337.93 L 841.65,338.59 L 844.51,340.22 L 845.92,341.08 L 848.63,343.08 L 849.97,344.12 L 852.50,346.47 L 853.75,347.68 L 856.09,350.33 L 857.23,351.69 L 859.33,354.61 L 860.35,356.10 L 862.20,359.27 L 863.09,360.88 L 864.66,364.25 L 866.65,369.50 L 867.17,371.10 L 867.95,374.03 L 868.31,375.49 L 868.83,378.55 L 869.06,380.15 L 869.39,383.86 L 869.47,384.85 L 869.59,387.06 L 869.76,390.75 L 870.26,404.00 L 713.99,404.00 L 714.35,336.55 L 714.36,336.75 L 714.40,337.21 L 714.47,338.05 L 714.51,338.35 L 714.60,338.85 L 714.65,338.95 L 714.90,339.48 L 715.01,339.61 L 715.20,339.77 L 715.29,339.72 L 715.45,339.52 L 715.52,339.28 L 715.67,338.69 L 715.75,338.25 L 716.30,336.66 L 716.81,336.00 L 717.07,336.00 L 717.73,335.32 L 718.00,334.32 L 718.00,333.69 L 718.37,332.23 L 718.95,331.14 L 719.37,330.57 L 721.36,328.25 L 722.58,327.22 L 723.81,326.23 L 724.43,325.82 L 725.66,325.06 L 726.22,324.79 L 727.32,324.36 L 727.78,324.29 L 728.64,324.28 L 728.94,324.46 L 729.72,324.48 L 730.20,324.10 L 730.34,323.76 L 730.74,323.45 L 730.95,323.94 L 730.99,324.50 L 731.14,326.50 L 732.00,324.50 L 732.34,323.19 L 732.54,321.90 L 732.63,321.11 L 732.91,317.62 L 732.93,315.77 L 732.93,313.15 L 732.86,311.74 L 732.77,311.18 L 732.53,310.15 L 732.33,309.77 L 731.84,309.08 L 731.48,308.83 L 730.79,308.48 L 733.00,309.04 L 733.00,385.00 L 764.00,385.00 L 764.07,353.75 L 764.08,349.45 L 764.09,341.04 L 764.09,338.99 L 764.09,335.07 L 764.09,333.14 L 764.08,329.55 L 764.08,327.81 L 764.07,324.65 L 764.07,323.14 L 764.06,320.53 L 764.05,319.30 L 764.03,317.34 L 764.01,315.25 L 763.87,308.00 L 783.00,308.00 M 907.00,404.00 L 888.00,404.00 L 888.00,308.00 L 907.00,308.00 M 499.70,396.60 L 499.54,396.48 L 499.53,396.48 M 499.26,396.26 L 498.30,395.51 L 498.29,395.51 M 497.17,394.36 L 496.11,393.27 L 496.11,393.27 M 813.76,352.17 L 808.30,352.91 L 806.95,353.25 L 804.29,354.26 L 802.98,354.82 L 800.44,356.24 L 799.19,357.00 L 796.81,358.79 L 795.64,359.72 L 793.47,361.83 L 792.42,362.92 L 790.51,365.29 L 789.59,366.51 L 787.98,369.10 L 787.22,370.42 L 785.97,373.18 L 784.53,377.46 L 784.32,378.28 L 783.94,379.84 L 783.75,380.59 L 783.45,381.90 L 783.31,382.51 L 783.12,383.43 L 783.00,384.21 L 783.00,384.26 L 783.68,384.37 L 784.13,384.42 L 785.64,384.52 L 786.49,384.56 L 788.74,384.65 L 789.95,384.69 L 792.84,384.77 L 794.36,384.80 L 797.80,384.86 L 799.59,384.89 L 803.49,384.94 L 805.49,384.96 L 809.77,384.98 L 816.50,385.00 L 850.00,385.00 L 850.00,380.87 L 849.59,378.41 L 849.32,377.16 L 848.42,374.59 L 847.91,373.30 L 846.58,370.71 L 845.86,369.42 L 844.16,366.91 L 843.28,365.67 L 841.28,363.31 L 840.24,362.16 L 838.00,360.06 L 836.86,359.04 L 834.44,357.27 L 830.69,355.08 L 829.22,354.37 L 825.65,353.32 L 823.79,352.86 L 819.77,352.33 L 817.75,352.14 M 691.22,339.17 L 689.82,335.00 L 689.84,335.00 M 764.42,308.52 L 764.30,308.84 L 764.11,309.61 L 764.06,310.25 L 764.00,311.70 L 764.00,312.73 L 764.22,316.44 L 764.37,317.40 L 764.46,317.74 L 764.65,318.32 L 764.75,318.43 L 764.96,318.52 L 765.07,318.40 L 765.27,318.06 L 765.37,317.75 L 765.55,317.06 L 765.63,316.61 L 765.77,315.64 L 765.81,315.07 L 765.99,313.51 L 766.17,312.64 L 766.27,312.32 L 766.49,311.74 L 766.60,311.60 L 766.84,311.40 L 766.95,311.47 L 767.71,311.40 L 768.21,310.91 L 768.36,310.49 L 768.51,309.44 L 768.29,309.00 L 768.05,309.00 L 766.96,308.82 L 766.02,308.56 L 765.58,308.39 L 764.78,308.28 M 723.51,308.12 L 722.89,308.14 L 723.40,308.12 M 626.15,362.80 L 626.17,365.92 L 626.20,372.03 L 626.22,374.89 L 626.26,380.44 L 626.28,382.96 L 626.33,387.83 L 626.36,389.96 L 626.41,394.00 L 626.44,395.68 L 626.50,398.77 L 626.53,399.92 L 626.56,401.01 L 626.58,401.44 L 626.61,402.23 L 626.62,402.51 L 626.66,403.00 L 626.67,403.12 L 626.70,403.29 L 626.72,403.24 L 627.31,402.52 L 627.83,402.40 L 628.09,402.55 L 628.45,402.20 L 628.66,401.41 L 628.74,400.78 L 628.89,399.37 L 628.93,398.48 L 629.00,396.58 L 629.00,395.49 L 629.08,392.39 L 629.20,390.43 L 629.29,389.57 L 629.48,387.96 L 629.60,387.35 L 629.84,386.29 L 629.98,386.04 L 630.61,385.28 L 631.31,384.63 L 631.76,384.26 L 633.80,382.70 L 634.95,381.92 L 637.29,380.41 L 638.27,379.87 L 639.21,379.39 L 639.58,379.24 L 640.24,379.00 L 640.43,379.00 L 640.65,379.32 L 640.78,379.82 L 640.83,380.19 L 641.00,381.94 L 641.00,383.06 L 641.07,384.68 L 641.19,385.54 L 641.27,385.84 L 641.47,386.35 L 641.59,386.46 L 641.85,386.59 L 642.00,386.50 L 642.30,386.92 L 642.50,387.75 L 642.60,388.38 L 642.78,389.76 L 642.87,390.59 L 643.02,392.34 L 643.08,393.28 L 643.29,397.20 L 643.31,398.98 L 643.30,400.71 L 643.27,401.43 L 643.19,402.78 L 643.12,403.25 L 643.33,403.78 L 643.73,404.00 L 626.20,404.00 L 626.10,356.00 L 625.99,308.00 L 626.13,356.25 Z" fill="rgba(210,166,82,1)"/>
<path d="M 516.62,51.00 L 521.39,51.00 L 530.67,51.00 L 535.26,51.00 L 544.20,51.00 L 548.62,51.00 L 557.22,51.00 L 561.47,51.00 L 569.74,51.00 L 573.83,51.01 L 581.77,51.01 L 585.70,51.01 L 593.32,51.01 L 597.09,51.02 L 604.40,51.02 L 608.02,51.02 L 615.03,51.03 L 618.49,51.03 L 625.21,51.04 L 628.53,51.04 L 634.95,51.05 L 638.12,51.06 L 644.26,51.07 L 647.30,51.07 L 653.17,51.08 L 656.06,51.09 L 661.66,51.10 L 667.19,51.12 L 677.48,51.15 L 682.50,51.17 L 691.81,51.21 L 696.35,51.23 L 704.73,51.28 L 708.81,51.30 L 716.33,51.36 L 719.98,51.39 L 726.68,51.46 L 729.94,51.49 L 735.89,51.57 L 738.77,51.61 L 744.02,51.70 L 746.56,51.75 L 751.17,51.85 L 753.39,51.91 L 757.41,52.02 L 759.35,52.08 L 762.84,52.21 L 764.52,52.28 L 767.53,52.43 L 768.99,52.50 L 771.58,52.66 L 772.83,52.74 L 775.07,52.92 L 776.14,53.01 L 778.07,53.21 L 779.93,53.41 L 782.98,53.86 L 784.43,54.09 L 786.99,54.63 L 788.25,54.90 L 790.77,55.52 L 795.00,56.55 L 798.44,57.36 L 805.35,59.25 L 808.81,60.23 L 815.72,62.43 L 819.16,63.57 L 826.00,66.07 L 829.41,67.35 L 836.12,70.12 L 839.45,71.54 L 845.97,74.55 L 849.20,76.08 L 855.46,79.31 L 858.56,80.95 L 864.50,84.37 L 873.00,89.69 L 876.50,92.01 L 883.26,96.87 L 886.61,99.34 L 893.05,104.49 L 896.24,107.11 L 902.36,112.55 L 905.38,115.30 L 911.18,121.03 L 914.04,123.92 L 919.51,129.91 L 922.20,132.94 L 927.33,139.20 L 929.86,142.37 L 934.65,148.89 L 937.01,152.18 L 941.46,158.95 L 943.64,162.37 L 947.75,169.38 L 949.76,172.92 L 953.51,180.18 L 955.34,183.84 L 958.74,191.33 L 960.39,195.10 L 963.43,202.82 L 964.90,206.71 L 967.57,214.64 L 968.86,218.64 L 971.17,226.79 L 972.27,230.89 L 974.21,239.24 L 976.68,252.00 L 976.78,252.62 L 976.98,254.06 L 977.07,254.83 L 977.24,256.81 L 977.32,257.89 L 977.47,260.70 L 977.51,261.47 L 977.57,263.21 L 977.61,264.12 L 977.67,266.18 L 977.70,267.25 L 977.76,269.65 L 977.79,270.90 L 977.85,273.68 L 977.88,275.13 L 977.93,278.34 L 977.95,280.00 L 978.00,283.67 L 978.02,285.56 L 978.07,289.73 L 978.09,291.87 L 978.13,296.57 L 978.15,298.99 L 978.19,304.26 L 978.21,306.97 L 978.24,312.85 L 978.26,315.86 L 978.29,322.39 L 978.31,325.73 L 978.34,332.93 L 978.35,336.62 L 978.38,344.55 L 978.39,348.60 L 978.42,357.28 L 978.43,361.72 L 978.45,371.19 L 978.46,376.03 L 978.48,386.33 L 978.50,391.59 L 978.52,402.76 L 978.53,408.46 L 978.54,420.53 L 978.55,426.69 L 978.57,439.70 L 978.58,446.33 L 978.60,460.33 L 978.61,467.45 L 978.62,482.47 L 978.63,486.28 L 978.64,494.12 L 978.64,498.07 L 978.65,506.17 L 978.65,510.25 L 978.66,518.62 L 978.66,522.84 L 978.67,531.49 L 978.68,535.85 L 978.68,544.78 L 978.69,549.28 L 978.70,558.49 L 978.70,563.14 L 978.71,572.64 L 978.71,577.43 L 978.72,587.23 L 978.72,592.16 L 978.73,602.26 L 978.74,617.75 L 979.03,973.00 L 620.76,972.87 L 608.45,972.87 L 584.23,972.85 L 572.20,972.85 L 548.64,972.83 L 536.96,972.82 L 514.19,972.79 L 502.92,972.78 L 481.07,972.75 L 475.67,972.74 L 465.06,972.73 L 459.79,972.72 L 449.45,972.70 L 444.32,972.70 L 434.27,972.68 L 429.28,972.67 L 419.53,972.65 L 414.70,972.64 L 405.27,972.62 L 400.59,972.61 L 391.50,972.59 L 386.99,972.58 L 378.25,972.56 L 373.92,972.55 L 365.54,972.53 L 361.39,972.52 L 353.39,972.49 L 349.44,972.48 L 341.84,972.46 L 338.09,972.45 L 330.90,972.42 L 327.35,972.41 L 320.59,972.38 L 317.26,972.37 L 310.94,972.35 L 307.84,972.33 L 301.97,972.31 L 299.10,972.29 L 293.71,972.27 L 291.08,972.25 L 286.18,972.23 L 283.80,972.21 L 279.40,972.19 L 277.27,972.17 L 273.40,972.14 L 271.53,972.13 L 268.20,972.10 L 266.60,972.09 L 263.82,972.06 L 262.50,972.04 L 260.29,972.02 L 259.25,972.00 L 257.62,971.97 L 256.88,971.96 L 255.85,971.93 L 255.41,971.91 L 255.00,971.88 L 249.52,971.26 L 238.68,969.45 L 233.28,968.45 L 222.63,965.90 L 217.33,964.53 L 206.88,961.25 L 201.69,959.52 L 191.47,955.53 L 186.40,953.44 L 176.44,948.73 L 171.50,946.30 L 161.83,940.89 L 157.03,938.11 L 147.67,932.02 L 134.00,922.12 L 133.42,921.67 L 132.05,920.55 L 131.33,919.96 L 129.75,918.61 L 128.12,917.22 L 124.46,913.94 L 122.60,912.25 L 118.80,908.70 L 113.45,903.52 L 111.04,901.11 L 106.39,896.16 L 104.10,893.66 L 99.69,888.52 L 97.51,885.92 L 93.34,880.61 L 91.29,877.93 L 87.36,872.44 L 85.43,869.67 L 81.75,864.02 L 79.95,861.18 L 76.52,855.37 L 74.84,852.45 L 71.67,846.50 L 70.11,843.50 L 67.20,837.41 L 65.77,834.35 L 63.12,828.13 L 61.83,825.00 L 59.44,818.65 L 58.29,815.46 L 56.17,809.00 L 55.14,805.75 L 53.30,799.18 L 52.41,795.88 L 50.85,789.21 L 50.10,785.87 L 48.81,779.10 L 48.20,775.71 L 47.20,768.86 L 46.02,758.50 L 46.00,758.27 L 45.96,757.48 L 45.94,757.03 L 45.90,755.79 L 45.88,755.11 L 45.84,753.41 L 45.82,752.51 L 45.78,750.36 L 45.77,749.24 L 45.73,746.64 L 45.71,745.29 L 45.68,742.25 L 45.66,740.67 L 45.63,737.19 L 45.61,735.39 L 45.58,731.46 L 45.56,729.44 L 45.53,725.06 L 45.52,722.82 L 45.49,718.01 L 45.47,715.54 L 45.44,710.29 L 45.43,707.61 L 45.40,701.91 L 45.39,699.01 L 45.37,692.88 L 45.35,689.76 L 45.33,683.19 L 45.32,679.85 L 45.29,672.85 L 45.28,669.30 L 45.26,661.86 L 45.25,658.09 L 45.23,650.22 L 45.22,646.24 L 45.20,637.94 L 45.19,633.74 L 45.17,625.01 L 45.16,620.59 L 45.15,611.44 L 45.14,606.81 L 45.12,597.23 L 45.12,592.38 L 45.10,582.38 L 45.10,577.32 L 45.08,566.89 L 45.08,561.63 L 45.07,550.77 L 45.06,545.30 L 45.05,534.02 L 45.05,528.33 L 45.04,516.64 L 45.03,510.74 L 45.03,498.63 L 45.02,492.53 L 45.02,480.00 L 45.01,473.68 L 45.01,460.74 L 45.01,454.22 L 45.01,440.86 L 45.00,434.13 L 45.00,420.37 L 45.00,399.25 L 45.00,51.00 L 408.89,51.00 L 420.78,51.00 L 426.68,51.00 L 438.18,51.00 L 443.88,51.00 L 455.00,51.00 L 460.50,51.00 L 471.23,51.00 L 476.55,51.00 L 486.91,51.00 L 492.04,51.00 L 502.04,51.00 L 506.99,51.00 M 64.24,415.74 L 64.50,761.50 L 66.85,774.00 L 67.96,779.94 L 70.83,791.55 L 72.37,797.31 L 76.07,808.55 L 78.02,814.11 L 82.53,824.91 L 84.88,830.26 L 90.17,840.60 L 92.92,845.71 L 98.98,855.54 L 102.10,860.39 L 108.90,869.68 L 112.40,874.25 L 119.92,882.94 L 132.00,895.28 L 135.42,898.50 L 142.46,904.55 L 146.02,907.50 L 153.34,913.02 L 157.03,915.71 L 164.64,920.71 L 168.48,923.14 L 176.38,927.62 L 180.37,929.80 L 188.57,933.77 L 192.71,935.69 L 201.22,939.15 L 205.52,940.82 L 214.35,943.78 L 227.97,947.66 L 229.58,948.07 L 232.33,948.81 L 233.65,949.16 L 236.14,949.80 L 237.40,950.11 L 240.10,950.66 L 241.51,950.92 L 244.85,951.38 L 245.75,951.49 L 247.75,951.70 L 248.78,951.80 L 251.10,951.98 L 252.30,952.08 L 254.98,952.25 L 256.38,952.33 L 259.50,952.48 L 261.11,952.56 L 264.72,952.69 L 266.58,952.76 L 270.73,952.88 L 272.87,952.94 L 277.62,953.05 L 280.07,953.10 L 285.47,953.19 L 288.26,953.24 L 294.37,953.32 L 297.52,953.36 L 304.40,953.43 L 307.94,953.46 L 315.64,953.52 L 319.60,953.55 L 328.18,953.60 L 332.59,953.62 L 342.11,953.67 L 346.99,953.69 L 357.50,953.72 L 360.19,953.73 L 365.78,953.74 L 368.60,953.75 L 374.45,953.76 L 377.41,953.77 L 383.53,953.78 L 386.63,953.79 L 393.03,953.80 L 396.27,953.80 L 402.96,953.81 L 406.35,953.81 L 413.34,953.82 L 416.87,953.83 L 424.16,953.83 L 427.84,953.84 L 435.45,953.84 L 439.29,953.84 L 447.20,953.85 L 451.20,953.85 L 459.45,953.85 L 463.61,953.86 L 472.18,953.86 L 476.51,953.86 L 485.42,953.87 L 489.92,953.87 L 499.17,953.87 L 503.85,953.87 L 513.45,953.87 L 518.30,953.87 L 528.27,953.88 L 533.30,953.88 L 543.63,953.88 L 548.84,953.88 L 559.55,953.88 L 564.95,953.89 L 576.03,953.89 L 581.62,953.89 L 593.10,953.89 L 610.75,953.90 L 960.00,954.00 L 960.00,608.15 L 960.00,594.54 L 960.00,587.78 L 960.00,574.57 L 959.99,568.02 L 959.99,555.21 L 959.99,548.86 L 959.98,536.46 L 959.98,530.31 L 959.97,518.32 L 959.97,512.37 L 959.96,500.79 L 959.96,495.05 L 959.95,483.87 L 959.95,478.34 L 959.93,467.57 L 959.93,462.24 L 959.92,451.89 L 959.91,446.76 L 959.90,436.82 L 959.89,431.91 L 959.88,422.38 L 959.87,417.67 L 959.85,408.56 L 959.85,404.06 L 959.83,395.36 L 959.82,391.07 L 959.80,382.80 L 959.79,378.71 L 959.77,370.86 L 959.76,366.98 L 959.74,359.55 L 959.73,355.88 L 959.71,348.87 L 959.70,345.42 L 959.67,338.83 L 959.66,335.58 L 959.64,329.42 L 959.62,326.39 L 959.60,320.65 L 959.58,317.83 L 959.56,312.52 L 959.54,309.92 L 959.51,305.03 L 959.50,302.64 L 959.47,298.19 L 959.45,296.01 L 959.42,291.99 L 959.41,290.03 L 959.37,286.44 L 959.36,284.70 L 959.32,281.53 L 959.31,280.01 L 959.27,277.28 L 959.25,275.97 L 959.22,273.68 L 959.20,272.59 L 959.16,270.74 L 959.14,269.87 L 959.10,268.45 L 959.08,267.80 L 959.04,266.82 L 958.98,265.86 L 958.57,261.71 L 957.47,253.72 L 956.86,249.76 L 955.32,241.99 L 954.49,238.11 L 952.48,230.35 L 948.88,218.50 L 947.74,215.05 L 945.22,208.27 L 943.93,204.91 L 941.12,198.33 L 939.67,195.06 L 936.57,188.66 L 934.99,185.49 L 931.60,179.30 L 929.87,176.22 L 926.21,170.23 L 924.34,167.26 L 920.40,161.48 L 918.39,158.62 L 914.18,153.06 L 912.04,150.30 L 907.57,144.96 L 905.30,142.32 L 900.56,137.20 L 898.16,134.67 L 893.17,129.80 L 890.65,127.38 L 885.41,122.75 L 882.76,120.46 L 877.28,116.06 L 874.50,113.90 L 868.78,109.75 L 865.89,107.72 L 859.94,103.83 L 856.93,101.92 L 850.75,98.30 L 841.22,93.18 L 836.52,90.79 L 827.27,86.67 L 822.63,84.70 L 813.07,81.27 L 810.63,80.45 L 805.61,78.90 L 803.06,78.14 L 797.76,76.71 L 795.07,76.00 L 789.43,74.64 L 780.50,72.68 L 770.50,70.60 L 417.23,70.29 L 63.97,69.98 M 574.00,625.00 L 574.00,644.00 L 545.00,644.00 L 545.00,679.00 L 525.00,679.00 L 525.00,641.26 L 525.01,636.83 L 525.01,634.67 L 525.01,633.74 L 525.13,636.75 L 525.24,637.97 L 525.35,639.13 L 525.41,639.59 L 525.55,640.45 L 525.63,640.75 L 525.89,641.58 L 526.05,641.89 L 526.38,642.45 L 526.56,642.63 L 527.31,643.11 L 527.67,642.99 L 528.37,642.52 L 528.61,641.95 L 529.00,640.61 L 529.00,639.63 L 529.20,637.67 L 529.66,636.61 L 530.19,636.08 L 530.78,635.54 L 531.18,635.24 L 532.04,634.62 L 532.59,634.27 L 533.77,633.52 L 534.50,633.09 L 536.06,632.17 L 537.00,631.62 L 545.00,626.97 L 545.00,625.00 M 480.83,638.80 L 480.88,641.12 L 480.91,642.32 L 480.94,644.97 L 480.95,646.33 L 480.97,649.33 L 480.98,654.25 L 481.00,679.00 L 464.86,679.00 L 466.62,678.56 L 468.88,677.69 L 470.24,676.90 L 470.62,676.52 L 471.26,675.80 L 471.46,675.45 L 471.43,675.33 L 471.29,675.10 L 471.10,675.01 L 470.62,674.85 L 470.25,674.77 L 469.56,674.48 L 469.45,674.21 L 469.58,674.02 L 469.96,673.59 L 470.35,673.30 L 471.26,672.66 L 471.93,672.25 L 473.32,671.43 L 474.11,671.02 L 474.44,670.89 L 475.62,670.58 L 476.00,670.73 L 476.64,671.25 L 476.81,671.84 L 477.07,673.25 L 477.10,674.31 L 477.17,676.04 L 477.24,676.65 L 477.30,676.69 L 477.44,676.61 L 477.55,676.33 L 477.81,675.60 L 478.00,675.00 L 478.62,673.53 L 478.79,673.32 L 478.86,673.31 L 478.97,673.36 L 479.00,673.50 L 479.14,673.69 L 479.29,673.61 L 479.38,673.47 L 479.78,672.69 L 480.00,672.00 L 480.16,671.09 L 480.27,670.11 L 480.32,669.45 L 480.41,668.03 L 480.46,667.18 L 480.55,665.38 L 480.59,664.36 L 480.74,659.98 L 480.79,657.46 L 480.87,652.25 L 480.88,649.50 L 480.88,645.49 L 480.88,643.04 L 480.87,641.92 L 480.81,638.33 M 622.00,630.81 L 616.75,631.53 L 615.31,631.72 L 612.27,632.58 L 611.55,632.81 L 610.30,633.33 L 608.86,634.11 L 607.96,634.75 L 606.43,636.66 L 605.71,637.72 L 604.58,640.36 L 604.07,641.75 L 603.40,644.96 L 602.97,650.27 L 602.96,650.97 L 602.95,652.14 L 602.94,652.69 L 602.91,653.56 L 602.87,654.36 L 602.71,655.19 L 602.61,655.49 L 602.27,655.44 L 601.50,654.61 L 601.11,654.09 L 600.38,652.95 L 599.69,651.61 L 599.64,651.45 L 599.13,651.45 L 598.82,651.49 L 597.87,651.88 L 597.34,652.11 L 596.05,652.83 L 593.83,654.25 L 593.14,654.72 L 591.95,655.52 L 591.38,655.89 L 590.40,656.50 L 589.48,657.06 L 588.14,657.67 L 587.54,657.89 L 586.69,657.90 L 586.29,657.84 L 585.67,657.33 L 585.62,657.29 L 585.53,656.76 L 585.49,656.44 L 585.41,655.39 L 585.37,654.81 L 585.29,653.31 L 585.26,652.50 L 585.20,650.60 L 585.17,649.60 L 585.11,647.35 L 585.09,646.19 L 585.05,643.67 L 585.00,635.33 L 585.00,614.00 L 601.00,614.00 L 601.04,620.25 L 601.08,626.50 L 602.66,623.50 L 603.57,621.78 L 605.72,618.95 L 606.84,617.65 L 609.40,615.67 L 610.73,614.78 L 613.67,613.67 L 618.47,613.00 L 622.00,613.00 M 666.44,612.94 L 668.53,613.19 L 672.23,614.01 L 673.08,614.23 L 674.57,614.72 L 675.28,614.97 L 676.40,615.51 L 676.91,615.78 L 677.58,616.35 L 678.00,617.20 L 678.00,617.35 L 677.84,617.52 L 677.73,617.58 L 677.37,617.56 L 675.75,616.87 L 675.38,616.64 L 674.03,616.31 L 673.27,616.17 L 671.31,616.00 L 670.26,615.93 L 667.89,615.89 L 666.68,615.89 L 664.12,615.98 L 662.84,616.05 L 660.31,616.26 L 659.07,616.38 L 656.79,616.70 L 655.70,616.88 L 653.88,617.30 L 651.91,618.03 L 650.77,618.68 L 648.68,619.93 L 647.67,620.55 L 645.83,621.74 L 644.06,622.93 L 641.19,625.19 L 639.86,626.32 L 637.78,628.55 L 635.41,631.99 L 635.04,632.68 L 634.30,633.93 L 633.95,634.53 L 633.31,635.53 L 633.00,635.98 L 632.53,636.60 L 632.08,637.00 L 632.00,637.00 L 631.83,637.26 L 631.74,637.42 L 631.58,637.95 L 631.23,640.25 L 631.20,640.70 L 631.07,641.95 L 631.00,642.61 L 630.81,644.16 L 630.13,649.00 L 629.98,650.01 L 629.72,651.41 L 629.60,652.00 L 629.41,652.59 L 629.32,652.79 L 629.18,652.61 L 629.12,652.42 L 629.01,651.50 L 628.94,650.67 L 628.74,648.65 L 628.46,646.00 L 628.42,645.66 L 628.43,644.71 L 628.44,644.21 L 628.54,643.06 L 629.12,639.50 L 629.38,638.40 L 629.90,636.17 L 630.02,635.65 L 630.23,634.77 L 630.46,633.79 L 630.67,632.90 L 631.30,631.13 L 631.65,630.24 L 632.54,628.48 L 633.49,626.74 L 636.06,623.41 L 637.44,621.80 L 640.75,618.90 L 646.31,615.28 L 647.42,614.70 L 649.30,613.89 L 650.22,613.52 L 652.10,613.06 L 653.08,612.87 L 655.43,612.66 L 656.07,612.62 L 657.52,612.58 L 660.00,612.54 L 662.15,612.53 M 462.76,635.06 L 462.83,635.38 L 462.76,635.06 M 460.68,631.50 L 461.10,631.94 L 461.89,632.91 L 462.19,633.58 L 462.40,634.13 L 462.19,633.58 L 461.88,632.91 L 461.10,631.94 L 460.68,631.50 L 459.65,630.89 L 457.80,630.21 L 459.66,630.89 M 658.10,627.87 L 658.48,628.23 L 658.58,628.42 L 658.29,628.88 L 658.06,629.12 L 657.07,629.71 L 654.75,630.79 L 653.99,631.11 L 652.81,631.34 L 652.56,631.37 L 652.22,631.30 L 652.08,631.25 L 652.00,631.04 L 652.00,630.66 L 652.67,629.79 L 653.08,629.36 L 654.25,628.58 L 654.87,628.22 L 656.13,627.76 L 657.68,627.71 M 479.36,625.90 L 479.51,626.51 L 479.30,625.75 M 479.00,624.99 L 479.07,625.16 L 478.94,624.85 M 474.59,619.09 L 476.00,620.46 L 476.66,621.14 L 477.73,622.56 L 478.23,623.29 L 478.88,624.72 L 478.14,623.19 L 477.65,622.48 L 476.59,621.09 L 475.94,620.42 L 474.57,619.07 M 545.23,611.93 L 545.24,611.84 L 545.24,611.83 M 545.66,610.17 L 545.81,609.65 L 545.83,609.60 M 546.16,609.03 L 545.91,609.46 L 546.13,609.06 L 546.88,607.93 L 546.89,607.91 M 532.27,592.68 L 531.23,594.00 L 529.28,596.76 L 528.48,598.32 L 527.02,601.57 L 526.70,602.64 L 526.89,601.84 L 527.64,599.79 L 528.05,598.81 L 529.06,597.03 L 530.90,594.30 L 531.32,593.71 L 532.43,592.50 L 533.02,591.90 L 534.36,590.73 L 534.44,590.68 M 626.25,341.69 L 626.27,343.42 L 626.31,346.72 L 626.33,348.12 L 626.37,350.74 L 626.40,351.78 L 626.44,353.69 L 626.47,354.35 L 626.52,355.50 L 626.54,355.77 L 626.59,356.12 L 626.61,355.98 L 626.66,355.48 L 626.69,354.91 L 626.73,353.53 L 626.75,352.50 L 626.84,349.01 L 626.91,346.94 L 626.95,346.03 L 627.03,344.31 L 627.08,343.57 L 627.17,342.19 L 627.22,341.63 L 627.33,340.59 L 627.39,340.20 L 627.51,339.50 L 627.58,339.28 L 627.72,338.93 L 627.79,338.88 L 627.94,338.88 L 628.02,339.00 L 628.44,339.28 L 628.66,338.95 L 628.74,338.53 L 628.88,337.51 L 628.92,336.72 L 628.98,334.97 L 628.98,333.82 L 629.05,330.80 L 629.15,329.06 L 629.24,328.30 L 629.45,326.87 L 629.60,326.25 L 629.93,325.07 L 630.15,324.56 L 631.18,322.72 L 631.96,322.00 L 633.71,320.66 L 634.92,320.04 L 636.75,319.14 L 637.76,318.68 L 638.17,318.53 L 638.94,318.27 L 639.24,318.22 L 639.80,318.17 L 640.01,318.23 L 640.40,318.40 L 640.54,318.58 L 640.78,318.98 L 640.87,319.27 L 641.10,320.67 L 641.14,321.75 L 641.23,323.45 L 641.30,324.10 L 641.35,324.19 L 641.46,324.23 L 641.53,324.03 L 641.69,323.49 L 641.79,323.00 L 642.31,320.50 L 643.05,323.00 L 643.38,323.48 L 643.56,323.09 L 643.63,322.56 L 643.76,321.27 L 643.81,320.30 L 643.88,318.14 L 643.90,316.75 L 644.00,308.00 L 645.00,308.00 L 645.00,359.92 L 644.98,367.06 L 644.97,370.51 L 644.94,376.72 L 644.91,379.70 L 644.86,384.96 L 644.82,387.46 L 644.74,391.75 L 644.70,393.77 L 644.60,397.07 L 644.55,398.60 L 644.43,400.91 L 644.37,401.93 L 644.23,403.22 L 644.00,404.00 L 643.73,404.00 L 643.33,403.78 L 643.12,403.25 L 643.19,402.78 L 643.27,401.43 L 643.30,400.71 L 643.31,398.98 L 643.29,397.20 L 643.08,393.28 L 643.02,392.34 L 642.87,390.59 L 642.78,389.76 L 642.60,388.38 L 642.50,387.75 L 642.30,386.92 L 642.00,386.50 L 641.85,386.59 L 641.59,386.46 L 641.47,386.35 L 641.27,385.84 L 641.19,385.54 L 641.07,384.68 L 641.00,383.06 L 641.00,381.94 L 640.83,380.19 L 640.78,379.82 L 640.65,379.32 L 640.43,379.00 L 640.24,379.00 L 639.58,379.24 L 639.21,379.39 L 638.27,379.87 L 637.29,380.41 L 634.95,381.92 L 633.80,382.70 L 631.76,384.26 L 631.31,384.63 L 630.61,385.28 L 629.98,386.04 L 629.84,386.29 L 629.60,387.35 L 629.48,387.96 L 629.29,389.57 L 629.20,390.43 L 629.08,392.39 L 629.00,395.49 L 629.00,396.58 L 628.93,398.48 L 628.89,399.37 L 628.74,400.78 L 628.66,401.41 L 628.45,402.20 L 628.09,402.55 L 627.83,402.40 L 627.31,402.52 L 626.72,403.24 L 626.70,403.29 L 626.67,403.12 L 626.66,403.00 L 626.62,402.51 L 626.61,402.23 L 626.58,401.44 L 626.56,401.01 L 626.53,399.92 L 626.50,398.77 L 626.44,395.68 L 626.41,394.00 L 626.36,389.96 L 626.33,387.83 L 626.28,382.96 L 626.26,380.44 L 626.22,374.89 L 626.20,372.03 L 626.17,365.92 L 626.15,362.80 L 626.13,356.25 L 625.99,308.00 L 626.00,308.00 L 626.22,337.75 M 590.22,358.55 L 590.24,359.59 L 590.26,361.62 L 590.27,362.53 L 590.31,365.89 L 590.33,367.18 L 590.37,369.50 L 590.39,370.29 L 590.44,371.61 L 590.46,371.91 L 590.52,372.28 L 590.55,372.13 L 590.62,371.59 L 590.66,371.00 L 590.74,369.61 L 590.79,368.60 L 590.90,366.39 L 590.96,365.00 L 591.10,362.20 L 591.19,360.57 L 591.24,359.88 L 591.33,358.59 L 591.38,358.06 L 591.48,357.09 L 591.52,356.73 L 591.62,356.10 L 591.67,355.91 L 591.76,355.61 L 591.81,355.59 L 591.90,355.64 L 591.95,355.79 L 592.04,356.18 L 592.09,356.50 L 592.39,358.31 L 592.47,358.60 L 592.50,358.65 L 592.57,358.67 L 592.59,358.58 L 592.64,358.33 L 592.67,358.10 L 592.71,357.57 L 592.73,357.19 L 592.77,356.36 L 592.79,355.83 L 592.83,354.69 L 592.85,354.00 L 592.93,351.50 L 593.01,350.13 L 593.07,349.56 L 593.22,348.50 L 593.33,348.05 L 593.58,347.21 L 593.76,346.85 L 594.64,345.53 L 595.40,344.89 L 596.22,344.24 L 596.73,343.87 L 597.82,343.12 L 598.48,342.67 L 600.15,341.58 L 601.07,341.01 L 601.44,340.80 L 602.14,340.44 L 602.41,340.33 L 602.92,340.18 L 603.11,340.18 L 603.73,340.40 L 603.87,340.83 L 604.07,341.90 L 604.10,342.75 L 604.20,345.50 L 605.00,343.00 L 605.62,341.67 L 605.79,341.56 L 605.86,341.61 L 605.97,341.79 L 606.00,342.00 L 606.14,342.37 L 606.28,342.37 L 606.37,342.27 L 606.76,341.62 L 606.98,341.03 L 607.40,339.71 L 607.57,338.96 L 607.86,337.43 L 607.90,336.75 L 607.66,335.83 L 607.08,335.42 L 606.46,335.30 L 605.78,335.19 L 605.33,335.15 L 604.36,335.08 L 603.75,335.06 L 602.46,335.02 L 601.67,335.01 L 599.99,335.00 L 608.00,335.00 L 608.00,371.34 L 608.00,374.55 L 607.99,376.11 L 607.99,379.01 L 607.98,380.42 L 607.97,383.03 L 607.96,384.29 L 607.94,386.61 L 607.92,388.87 L 607.87,392.58 L 607.83,394.32 L 607.75,397.07 L 607.70,398.33 L 607.58,400.23 L 607.52,401.07 L 607.37,402.21 L 607.28,402.69 L 607.09,403.17 L 606.75,403.26 L 606.41,402.98 L 604.99,402.70 L 602.50,402.76 L 602.40,402.78 L 601.97,402.81 L 601.73,402.83 L 601.03,402.87 L 600.27,402.90 L 597.98,402.98 L 596.72,403.02 L 593.54,403.10 L 591.85,403.14 L 587.90,403.21 L 585.84,403.25 L 581.23,403.33 L 578.86,403.36 L 573.74,403.43 L 571.12,403.47 L 565.60,403.53 L 557.00,403.61 L 514.50,403.97 L 509.37,401.85 L 509.58,401.88 L 509.86,401.71 L 510.35,401.25 L 510.60,400.85 L 510.80,400.19 L 510.47,400.21 L 510.08,400.45 L 509.55,400.72 L 509.38,400.71 L 509.38,400.62 L 509.45,400.35 L 509.57,400.12 L 509.87,399.57 L 510.12,399.18 L 511.26,397.92 L 512.41,396.96 L 513.13,396.45 L 514.68,395.41 L 515.55,394.88 L 517.36,393.82 L 518.31,393.32 L 522.22,391.36 L 524.05,390.63 L 525.83,389.97 L 526.63,389.73 L 528.14,389.33 L 528.75,389.26 L 531.75,388.64 L 532.45,388.38 L 532.66,388.25 L 533.00,387.99 L 533.00,387.87 L 533.22,387.52 L 533.56,387.31 L 533.81,387.23 L 534.99,386.93 L 538.50,386.80 L 536.00,386.00 L 534.36,385.61 L 533.08,385.40 L 532.37,385.33 L 529.42,385.12 L 527.93,385.13 L 525.01,385.23 L 523.83,385.39 L 522.70,385.58 L 522.25,385.69 L 521.45,385.95 L 521.20,386.11 L 520.11,386.52 L 519.32,386.52 L 518.83,386.36 L 517.77,385.93 L 517.08,385.54 L 515.59,384.63 L 514.61,383.97 L 513.79,383.32 L 514.42,383.63 L 514.84,383.82 L 515.89,384.11 L 516.47,384.25 L 518.06,384.46 L 518.94,384.56 L 521.32,384.71 L 521.97,384.74 L 523.48,384.79 L 524.27,384.82 L 526.07,384.86 L 527.01,384.88 L 529.13,384.91 L 530.23,384.93 L 532.71,384.95 L 533.99,384.96 L 536.86,384.97 L 538.35,384.98 L 541.64,384.99 L 543.34,384.99 L 547.08,384.99 L 553.25,385.00 L 590.00,385.00 L 590.00,335.00 L 590.20,356.25 M 498.87,395.93 L 499.95,396.76 L 502.17,398.35 L 502.73,398.67 L 502.13,398.34 L 499.53,396.48 L 498.29,395.50 L 496.95,394.13 M 492.12,387.86 L 492.07,387.78 L 492.06,387.75 M 489.74,382.97 L 489.63,382.73 L 489.60,382.65 M 487.55,361.53 L 487.32,363.79 L 487.06,368.43 L 487.21,370.92 L 487.72,375.49 L 488.30,378.42 L 488.70,379.81 L 488.83,380.23 L 488.48,379.15 L 487.97,377.34 L 487.34,373.63 L 487.09,371.77 L 486.98,368.03 L 486.99,366.17 L 487.40,362.50 L 487.67,360.68 L 488.38,357.99 M 509.13,379.22 L 508.55,378.59 L 508.05,377.72 M 507.23,376.00 L 507.35,376.28 L 506.74,374.98 L 506.52,373.94 M 509.16,358.79 L 508.27,359.97 L 507.02,362.68 L 506.97,362.80 L 507.25,361.96 L 507.60,361.22 L 508.35,359.78 L 508.80,359.13 L 509.76,357.87 L 510.31,357.32 L 510.99,356.70 M 513.60,354.91 L 512.33,355.71 L 511.22,356.49 L 511.46,356.26 L 512.11,355.81 L 513.45,354.96 L 514.18,354.62 L 515.69,354.00 L 515.73,353.99 L 514.30,354.59 M 691.84,341.00 L 692.26,342.23 L 692.80,344.02 L 693.03,344.81 L 693.21,345.85 L 693.25,346.29 L 693.07,346.76 L 692.43,347.00 L 692.04,347.00 L 691.42,347.24 L 691.00,347.83 L 691.00,348.06 L 690.63,348.42 L 689.73,348.67 L 689.56,348.67 L 688.84,348.96 L 688.43,349.14 L 687.34,349.74 L 683.36,352.33 L 682.69,352.82 L 681.50,353.64 L 680.93,354.02 L 679.95,354.64 L 679.01,355.20 L 677.66,355.76 L 677.06,355.94 L 676.27,355.77 L 675.93,355.60 L 675.55,354.75 L 675.49,354.58 L 675.26,353.83 L 675.13,353.40 L 674.77,352.25 L 673.44,348.00 L 672.97,346.49 L 671.68,343.01 L 671.35,342.18 L 670.71,340.64 L 669.84,338.75 L 667.96,335.00 L 689.82,335.00 M 498.44,342.35 L 497.75,342.96 L 497.84,342.87 L 499.47,341.44 L 500.03,341.08 M 505.69,337.90 L 503.75,338.91 L 500.12,341.03 L 503.18,339.12 L 505.12,338.04 L 509.57,336.39 L 510.73,336.01 L 513.23,335.36 L 517.25,334.55 L 510.03,336.30 M 728.05,308.06 L 728.86,308.10 L 730.09,308.29 L 730.66,308.42 L 731.48,308.83 L 731.84,309.08 L 732.33,309.77 L 732.53,310.15 L 732.77,311.18 L 732.86,311.74 L 732.93,313.15 L 732.93,315.77 L 732.91,317.62 L 732.63,321.11 L 732.54,321.90 L 732.34,323.19 L 732.00,324.50 L 731.14,326.50 L 730.99,324.50 L 730.95,323.94 L 730.74,323.45 L 730.34,323.76 L 730.20,324.10 L 729.72,324.48 L 728.94,324.46 L 728.64,324.28 L 727.78,324.29 L 727.32,324.36 L 726.22,324.79 L 725.66,325.06 L 724.43,325.82 L 723.81,326.23 L 722.58,327.22 L 721.36,328.25 L 719.37,330.57 L 718.95,331.14 L 718.37,332.23 L 718.00,333.69 L 718.00,334.32 L 717.73,335.32 L 717.07,336.00 L 716.81,336.00 L 716.30,336.66 L 715.75,338.25 L 715.67,338.69 L 715.52,339.28 L 715.45,339.52 L 715.29,339.72 L 715.20,339.77 L 715.01,339.61 L 714.90,339.48 L 714.65,338.95 L 714.60,338.85 L 714.51,338.35 L 714.47,338.05 L 714.40,337.21 L 714.36,336.75 L 714.30,335.61 L 714.27,335.01 L 714.23,333.62 L 714.19,332.17 L 714.17,328.69 L 714.22,322.95 L 714.50,308.50 L 721.48,308.20 L 722.89,308.14 L 725.22,308.06 L 726.31,308.03 M 765.58,308.39 L 766.02,308.56 L 766.96,308.82 L 768.05,309.00 L 768.29,309.00 L 768.51,309.44 L 768.36,310.49 L 768.21,310.91 L 767.71,311.40 L 766.95,311.47 L 766.84,311.40 L 766.60,311.60 L 766.49,311.74 L 766.27,312.32 L 766.17,312.64 L 765.99,313.51 L 765.81,315.07 L 765.77,315.64 L 765.63,316.61 L 765.55,317.06 L 765.37,317.75 L 765.27,318.06 L 765.07,318.40 L 764.96,318.52 L 764.75,318.43 L 764.65,318.32 L 764.46,317.74 L 764.37,317.40 L 764.22,316.44 L 764.00,312.73 L 764.00,311.70 L 764.06,310.25 L 764.11,309.61 L 764.30,308.84 L 764.42,308.52 L 764.78,308.28 Z" fill="rgba(223,189,71,1)"/>
<path d="M 192.73,679.97 L 191.60,679.69 L 189.39,678.93 L 188.30,678.51 L 186.18,677.51 L 184.09,676.45 L 180.26,673.66 L 178.42,672.17 L 175.20,668.62 L 171.24,662.56 L 170.77,661.64 L 169.98,659.56 L 169.61,658.48 L 169.02,656.12 L 168.49,653.72 L 168.04,648.47 L 167.93,645.84 L 168.35,640.66 L 168.51,639.40 L 169.00,637.01 L 169.99,633.72 L 170.82,631.51 L 172.70,627.79 L 173.69,626.03 L 176.01,623.06 L 177.24,621.65 L 180.17,619.23 L 185.45,616.00 L 186.24,615.59 L 187.62,614.92 L 188.27,614.60 L 189.44,614.08 L 190.57,613.60 L 192.64,613.04 L 193.71,612.80 L 196.24,612.61 L 196.93,612.57 L 198.55,612.54 L 201.40,612.54 L 202.66,612.54 L 204.96,612.64 L 206.09,612.70 L 208.17,612.93 L 210.20,613.19 L 213.79,614.16 L 215.54,614.74 L 218.85,616.44 L 223.92,619.93 L 224.35,620.28 L 225.30,621.22 L 225.79,621.72 L 226.79,622.90 L 227.79,624.11 L 229.65,626.80 L 230.08,627.46 L 230.81,628.70 L 231.15,629.31 L 231.66,630.36 L 231.87,630.85 L 232.08,631.61 L 231.97,632.29 L 231.75,632.47 L 231.04,633.04 L 230.64,633.35 L 229.59,634.15 L 229.03,634.57 L 227.71,635.57 L 227.02,636.08 L 225.48,637.23 L 223.88,638.41 L 220.25,641.08 L 218.39,642.44 L 214.53,645.24 L 212.61,646.63 L 208.95,649.27 L 207.18,650.53 L 204.12,652.70 L 203.42,653.20 L 202.19,654.06 L 201.62,654.46 L 200.69,655.09 L 200.27,655.38 L 199.69,655.76 L 199.27,655.99 L 199.16,655.99 L 198.68,655.56 L 198.40,655.29 L 197.64,654.42 L 197.24,653.94 L 196.31,652.73 L 194.82,650.67 L 191.13,645.36 L 199.51,638.99 L 200.66,638.12 L 202.72,636.46 L 203.70,635.66 L 205.29,634.27 L 206.00,633.62 L 206.93,632.65 L 207.12,632.45 L 207.33,632.14 L 207.41,631.85 L 207.34,631.74 L 206.93,631.47 L 206.69,631.32 L 205.99,631.00 L 203.25,630.06 L 202.34,629.81 L 200.59,629.56 L 199.72,629.48 L 198.05,629.56 L 197.22,629.65 L 195.64,630.05 L 194.87,630.29 L 193.40,631.00 L 192.69,631.39 L 191.35,632.41 L 190.70,632.95 L 189.50,634.26 L 188.93,634.95 L 187.90,636.54 L 186.55,639.23 L 186.15,640.17 L 185.63,642.10 L 185.41,643.07 L 185.21,645.03 L 185.16,646.01 L 185.29,647.95 L 185.40,648.92 L 185.85,650.82 L 186.11,651.76 L 186.87,653.57 L 187.28,654.47 L 188.33,656.16 L 188.89,656.98 L 190.22,658.51 L 192.52,660.58 L 193.56,661.37 L 195.88,662.45 L 197.07,662.90 L 199.60,663.34 L 200.88,663.49 L 203.47,663.34 L 204.76,663.19 L 207.27,662.50 L 208.50,662.09 L 210.80,660.90 L 211.91,660.25 L 213.85,658.61 L 214.76,657.74 L 216.20,655.70 L 217.66,652.23 L 217.81,651.62 L 218.15,650.84 L 218.38,650.50 L 219.29,650.19 L 219.58,650.13 L 220.37,650.09 L 220.80,650.09 L 221.92,650.13 L 222.53,650.16 L 224.06,650.27 L 226.89,650.49 L 228.07,650.59 L 230.26,650.80 L 231.31,650.90 L 233.07,651.09 L 233.89,651.19 L 235.04,651.35 L 235.85,651.54 L 235.90,651.58 L 235.86,652.06 L 235.82,652.35 L 235.62,653.23 L 235.50,653.71 L 235.17,654.88 L 234.55,656.83 L 234.13,658.11 L 233.12,660.53 L 232.58,661.72 L 231.35,663.95 L 230.70,665.05 L 229.26,667.10 L 228.51,668.10 L 226.85,669.95 L 226.00,670.86 L 224.14,672.51 L 223.18,673.32 L 221.13,674.77 L 220.08,675.47 L 217.83,676.71 L 214.25,678.32 L 213.59,678.58 L 212.02,679.04 L 211.20,679.26 L 209.37,679.63 L 207.50,679.98 L 203.41,680.39 L 201.36,680.55 L 197.48,680.54 L 196.56,680.51 L 194.89,680.35 L 194.09,680.26 M 372.08,679.47 L 370.37,678.99 L 367.42,677.89 L 366.01,677.31 L 363.48,675.89 L 362.25,675.13 L 359.94,673.28 L 356.48,669.85 L 355.70,668.99 L 354.35,667.33 L 353.70,666.51 L 352.61,664.90 L 351.57,663.28 L 350.17,659.89 L 349.87,659.00 L 349.42,657.11 L 349.21,656.14 L 348.91,654.02 L 348.79,652.93 L 348.64,650.52 L 348.56,646.50 L 348.56,645.02 L 348.65,642.36 L 348.71,641.07 L 348.95,638.75 L 349.09,637.63 L 349.50,635.58 L 349.73,634.58 L 350.35,632.72 L 350.68,631.80 L 351.53,630.05 L 351.98,629.18 L 353.09,627.47 L 353.67,626.61 L 355.06,624.86 L 357.50,622.10 L 358.44,621.09 L 360.48,619.32 L 361.52,618.47 L 363.74,617.01 L 364.87,616.31 L 367.24,615.15 L 368.43,614.61 L 370.92,613.75 L 372.17,613.35 L 374.74,612.79 L 376.03,612.54 L 378.65,612.26 L 379.96,612.16 L 382.59,612.17 L 383.91,612.21 L 386.53,612.50 L 387.84,612.68 L 390.41,613.24 L 391.69,613.56 L 394.18,614.40 L 395.42,614.85 L 397.80,615.96 L 398.97,616.54 L 401.21,617.91 L 402.31,618.63 L 404.36,620.26 L 405.37,621.11 L 407.22,622.99 L 408.11,623.96 L 409.72,626.09 L 411.81,629.57 L 411.93,629.81 L 412.05,630.27 L 412.07,630.50 L 411.93,631.03 L 411.82,631.31 L 411.34,631.98 L 411.05,632.34 L 410.14,633.24 L 409.62,633.72 L 408.19,634.92 L 407.40,635.57 L 405.37,637.17 L 404.27,638.02 L 401.54,640.09 L 396.58,643.82 L 394.34,645.49 L 390.21,648.55 L 389.22,649.28 L 387.39,650.62 L 386.50,651.27 L 384.91,652.42 L 384.14,652.97 L 382.83,653.91 L 382.21,654.35 L 381.23,655.04 L 380.78,655.35 L 380.17,655.75 L 379.73,656.00 L 379.65,656.00 L 379.21,655.59 L 378.95,655.33 L 378.25,654.50 L 377.49,653.60 L 375.62,651.15 L 374.70,649.91 L 373.12,647.64 L 372.78,647.13 L 372.31,646.35 L 372.00,645.66 L 372.00,645.58 L 372.63,644.94 L 373.04,644.56 L 374.35,643.43 L 375.07,642.81 L 376.89,641.33 L 379.99,638.88 L 381.08,638.04 L 382.86,636.60 L 383.68,635.92 L 384.96,634.76 L 385.53,634.21 L 386.30,633.30 L 386.63,632.87 L 386.92,632.16 L 387.00,631.83 L 386.81,631.29 L 386.65,631.03 L 385.99,630.62 L 385.61,630.42 L 384.49,630.10 L 382.30,629.66 L 381.34,629.51 L 379.44,629.52 L 378.49,629.58 L 376.65,630.01 L 375.75,630.27 L 374.03,631.07 L 373.18,631.51 L 371.62,632.65 L 370.86,633.25 L 369.50,634.69 L 368.84,635.44 L 367.72,637.15 L 367.20,638.03 L 366.37,639.97 L 365.50,643.09 L 365.23,644.58 L 365.29,647.48 L 365.41,648.92 L 366.18,651.64 L 366.65,652.97 L 368.03,655.42 L 368.79,656.59 L 370.67,658.65 L 371.67,659.61 L 373.95,661.18 L 375.12,661.89 L 377.69,662.85 L 379.00,663.25 L 381.75,663.52 L 385.95,663.01 L 387.20,662.68 L 389.63,661.53 L 390.82,660.89 L 393.00,659.26 L 394.04,658.39 L 395.77,656.43 L 397.65,653.30 L 398.03,652.39 L 398.75,651.20 L 398.96,650.95 L 399.47,650.58 L 399.75,650.41 L 400.47,650.20 L 400.87,650.12 L 401.88,650.05 L 402.43,650.03 L 403.83,650.09 L 404.58,650.14 L 406.44,650.30 L 409.85,650.64 L 410.88,650.75 L 412.54,651.01 L 413.31,651.14 L 414.46,651.45 L 414.98,651.62 L 415.62,651.99 L 416.00,652.60 L 416.00,652.79 L 415.83,653.57 L 415.72,654.03 L 415.36,655.24 L 413.84,659.71 L 413.12,661.62 L 411.09,665.13 L 409.98,666.83 L 407.25,669.89 L 405.81,671.35 L 402.51,673.89 L 400.80,675.09 L 397.06,677.06 L 395.15,677.96 L 391.10,679.29 L 389.05,679.87 L 384.83,680.50 L 382.70,680.72 L 378.42,680.59 L 376.29,680.42 M 117.00,662.07 L 117.00,645.15 L 111.68,642.71 L 110.95,642.38 L 109.33,641.47 L 108.51,640.99 L 106.87,639.90 L 106.06,639.34 L 104.57,638.19 L 102.75,636.55 L 102.01,635.79 L 100.77,634.33 L 100.18,633.60 L 99.21,632.06 L 98.76,631.27 L 98.03,629.51 L 97.69,628.58 L 97.17,626.44 L 96.93,625.30 L 96.58,622.62 L 96.43,621.19 L 96.23,617.81 L 96.14,616.02 L 96.05,611.79 L 96.03,610.67 L 96.01,608.25 L 96.00,604.32 L 96.00,585.00 L 106.00,585.00 L 116.00,585.00 L 116.00,601.60 L 116.00,604.03 L 116.05,608.16 L 116.09,610.11 L 116.23,613.38 L 116.32,614.91 L 116.59,617.42 L 116.75,618.59 L 117.18,620.46 L 117.42,621.32 L 118.04,622.65 L 118.38,623.27 L 119.22,624.19 L 119.67,624.61 L 120.76,625.22 L 122.72,625.93 L 123.89,626.26 L 126.09,626.49 L 127.16,626.54 L 129.14,626.23 L 130.11,626.01 L 131.85,625.17 L 134.18,623.31 L 134.74,622.72 L 135.49,621.54 L 135.65,621.20 L 135.91,620.35 L 136.03,619.88 L 136.22,618.66 L 136.30,618.00 L 136.43,616.29 L 136.49,615.36 L 136.59,613.01 L 136.63,611.75 L 136.71,608.63 L 136.81,602.92 L 137.13,585.00 L 147.12,585.00 L 157.11,585.00 L 156.81,605.75 L 156.77,607.96 L 156.70,611.75 L 156.67,613.55 L 156.58,616.59 L 156.54,618.03 L 156.43,620.43 L 156.37,621.56 L 156.23,623.42 L 156.15,624.30 L 155.96,625.74 L 155.86,626.41 L 155.63,627.53 L 154.67,630.18 L 154.00,631.52 L 152.21,634.10 L 151.25,635.37 L 148.98,637.71 L 147.79,638.84 L 145.17,640.81 L 141.00,643.19 L 136.00,645.49 L 136.00,662.24 L 136.00,679.00 L 126.50,679.00 L 117.00,679.00 L 117.00,662.07 M 246.18,653.25 L 246.20,651.47 L 246.24,648.22 L 246.26,646.65 L 246.31,643.80 L 246.34,642.42 L 246.40,639.94 L 246.43,638.74 L 246.51,636.58 L 246.55,635.54 L 246.65,633.68 L 246.71,632.79 L 246.84,631.20 L 246.98,629.67 L 247.39,627.27 L 247.62,626.15 L 248.24,624.40 L 248.58,623.57 L 249.46,622.20 L 249.94,621.53 L 251.14,620.28 L 253.36,618.25 L 254.55,617.21 L 257.03,615.61 L 258.31,614.87 L 261.14,613.84 L 262.62,613.38 L 266.02,612.85 L 272.00,612.54 L 273.02,612.54 L 274.83,612.60 L 275.71,612.65 L 277.30,612.81 L 278.84,613.00 L 281.48,613.80 L 282.76,614.28 L 285.25,615.77 L 285.89,616.20 L 287.22,617.21 L 289.35,619.00 L 292.72,621.96 L 294.61,619.88 L 294.87,619.59 L 295.70,618.86 L 296.15,618.48 L 297.27,617.63 L 301.00,615.15 L 301.97,614.58 L 303.62,613.78 L 304.43,613.42 L 306.12,612.98 L 307.01,612.80 L 309.19,612.62 L 309.78,612.59 L 311.14,612.56 L 313.50,612.55 L 315.70,612.56 L 319.56,612.99 L 321.40,613.28 L 324.65,614.30 L 326.21,614.89 L 328.97,616.56 L 332.71,619.82 L 333.33,620.49 L 334.36,621.73 L 334.84,622.36 L 335.62,623.68 L 335.98,624.37 L 336.55,625.98 L 336.82,626.84 L 337.21,628.96 L 337.38,630.11 L 337.63,632.95 L 337.74,634.48 L 337.87,638.25 L 337.90,639.27 L 337.93,641.50 L 337.95,642.66 L 337.98,645.21 L 337.98,646.52 L 337.99,649.40 L 338.00,654.12 L 338.00,679.00 L 329.00,679.00 L 320.00,679.00 L 320.00,657.13 L 320.00,655.87 L 320.00,653.55 L 320.00,652.43 L 319.99,650.37 L 319.98,648.38 L 319.95,645.12 L 319.93,643.59 L 319.86,641.14 L 319.82,640.01 L 319.70,638.23 L 319.63,637.41 L 319.45,636.16 L 319.36,635.58 L 319.11,634.71 L 318.03,632.77 L 317.58,632.20 L 316.54,631.28 L 316.00,630.85 L 314.81,630.23 L 314.20,629.95 L 312.90,629.62 L 312.24,629.49 L 310.88,629.45 L 310.20,629.47 L 308.82,629.72 L 308.14,629.88 L 306.79,630.42 L 306.13,630.73 L 304.86,631.56 L 303.10,633.13 L 302.60,633.66 L 301.93,634.87 L 301.78,635.24 L 301.56,636.21 L 301.45,636.74 L 301.30,638.18 L 301.23,638.96 L 301.14,641.02 L 301.10,642.14 L 301.05,644.97 L 301.03,646.50 L 301.01,650.28 L 301.00,651.29 L 301.00,653.52 L 301.00,657.19 L 301.00,679.00 L 292.00,679.00 L 283.00,679.00 L 283.00,657.13 L 283.00,655.87 L 283.00,653.55 L 283.00,652.42 L 282.99,650.36 L 282.98,648.37 L 282.95,645.10 L 282.93,643.58 L 282.86,641.13 L 282.82,639.99 L 282.70,638.22 L 282.63,637.40 L 282.45,636.15 L 282.36,635.58 L 282.10,634.70 L 281.02,632.76 L 280.43,632.01 L 279.01,630.91 L 278.27,630.42 L 276.54,629.86 L 275.64,629.64 L 273.63,629.61 L 270.30,630.18 L 269.59,630.38 L 268.41,630.87 L 267.85,631.15 L 266.93,631.92 L 266.51,632.35 L 265.83,633.55 L 265.51,634.21 L 265.03,635.99 L 264.82,636.97 L 264.50,639.48 L 264.37,640.84 L 264.19,644.23 L 264.15,645.15 L 264.10,647.16 L 264.07,648.20 L 264.04,650.49 L 264.02,651.67 L 264.01,654.25 L 264.00,658.47 L 264.00,679.00 L 254.93,679.00 L 245.85,679.00 L 246.18,653.25 M 427.00,653.97 L 427.00,652.02 L 427.01,648.46 L 427.02,646.73 L 427.05,643.58 L 427.06,642.06 L 427.13,639.30 L 427.16,637.96 L 427.26,635.55 L 427.32,634.39 L 427.47,632.30 L 427.55,631.29 L 427.76,629.49 L 427.99,627.75 L 428.66,625.01 L 429.03,623.73 L 430.06,621.72 L 430.63,620.79 L 432.10,619.25 L 432.89,618.52 L 434.87,617.21 L 438.50,615.21 L 439.57,614.66 L 441.43,613.87 L 442.35,613.52 L 444.30,613.08 L 445.33,612.89 L 447.89,612.69 L 448.60,612.65 L 450.21,612.61 L 453.00,612.57 L 454.36,612.56 L 456.80,612.61 L 457.98,612.64 L 460.10,612.80 L 461.13,612.89 L 462.98,613.16 L 463.87,613.31 L 465.51,613.72 L 467.09,614.16 L 469.84,615.51 L 473.74,618.35 L 474.57,619.07 L 475.94,620.42 L 476.59,621.09 L 477.65,622.48 L 478.14,623.19 L 478.92,624.79 L 479.27,625.64 L 479.81,627.63 L 480.05,628.69 L 480.39,631.25 L 480.54,632.62 L 480.73,635.92 L 480.80,637.69 L 480.87,641.92 L 480.88,643.04 L 480.88,645.49 L 480.88,649.50 L 480.87,652.25 L 480.79,657.46 L 480.74,659.98 L 480.59,664.36 L 480.55,665.38 L 480.46,667.18 L 480.41,668.03 L 480.32,669.45 L 480.27,670.11 L 480.16,671.09 L 480.00,672.00 L 479.78,672.69 L 479.38,673.47 L 479.29,673.61 L 479.14,673.69 L 479.00,673.50 L 478.97,673.36 L 478.86,673.31 L 478.79,673.32 L 478.62,673.53 L 478.00,675.00 L 477.81,675.60 L 477.55,676.33 L 477.44,676.61 L 477.30,676.69 L 477.24,676.65 L 477.17,676.04 L 477.10,674.31 L 477.07,673.25 L 476.81,671.84 L 476.64,671.25 L 476.00,670.73 L 475.62,670.58 L 474.44,670.89 L 474.11,671.02 L 473.32,671.43 L 471.93,672.25 L 471.26,672.66 L 470.35,673.30 L 469.96,673.59 L 469.58,674.02 L 469.45,674.21 L 469.56,674.48 L 470.25,674.77 L 470.62,674.85 L 471.10,675.01 L 471.29,675.10 L 471.43,675.33 L 471.46,675.45 L 471.26,675.80 L 470.62,676.52 L 470.24,676.90 L 468.88,677.69 L 466.62,678.56 L 464.00,679.22 L 464.00,658.58 L 464.00,657.09 L 463.99,654.35 L 463.98,653.02 L 463.96,650.59 L 463.95,649.40 L 463.90,647.25 L 463.88,646.21 L 463.81,644.32 L 463.74,642.49 L 463.50,639.54 L 463.36,638.18 L 462.98,636.04 L 462.76,635.06 L 462.19,633.58 L 461.89,632.91 L 461.10,631.94 L 460.68,631.50 L 459.66,630.89 L 457.80,630.21 L 456.43,629.83 L 453.93,629.57 L 452.73,629.51 L 450.61,629.89 L 449.60,630.16 L 447.91,631.17 L 445.91,633.38 L 445.48,634.08 L 444.89,635.68 L 444.76,636.14 L 444.56,637.28 L 444.46,637.90 L 444.32,639.44 L 444.25,640.28 L 444.16,642.37 L 444.12,643.50 L 444.06,646.27 L 444.04,647.75 L 444.02,651.33 L 444.00,657.75 L 444.00,679.00 L 435.50,679.00 L 427.00,679.00 L 427.00,653.97 M 525.63,640.75 L 525.55,640.45 L 525.41,639.59 L 525.35,639.13 L 525.24,637.97 L 525.13,636.75 L 525.01,633.60 L 524.96,631.93 L 524.94,628.15 L 524.94,626.21 L 525.01,622.16 L 525.06,620.13 L 525.21,616.16 L 525.30,614.21 L 525.53,610.67 L 525.66,608.98 L 525.96,606.22 L 526.04,605.60 L 526.22,604.55 L 526.49,603.35 L 527.02,601.57 L 528.48,598.32 L 529.28,596.76 L 531.23,594.00 L 532.27,592.68 L 534.65,590.48 L 538.66,587.88 L 539.74,587.35 L 541.71,586.60 L 542.73,586.27 L 545.21,585.84 L 545.91,585.74 L 547.54,585.59 L 548.40,585.52 L 550.46,585.41 L 551.55,585.36 L 554.15,585.28 L 558.75,585.16 L 574.00,584.82 L 574.00,594.30 L 574.00,603.79 L 561.91,604.15 L 560.44,604.19 L 558.00,604.27 L 556.85,604.31 L 555.00,604.40 L 554.13,604.45 L 552.76,604.58 L 552.12,604.65 L 551.12,604.83 L 550.19,605.03 L 549.01,605.71 L 547.41,607.31 L 546.88,607.93 L 546.13,609.06 L 545.81,609.65 L 545.40,611.06 L 545.24,611.84 L 545.08,613.99 L 545.05,614.59 L 545.02,616.02 L 545.00,618.54 L 545.00,626.97 L 537.00,631.62 L 536.06,632.17 L 534.50,633.09 L 533.77,633.52 L 532.59,634.27 L 532.04,634.62 L 531.18,635.24 L 530.78,635.54 L 530.19,636.08 L 529.66,636.61 L 529.20,637.67 L 529.00,639.63 L 529.00,640.61 L 528.61,641.95 L 528.37,642.52 L 527.67,642.99 L 527.31,643.11 L 526.56,642.63 L 526.38,642.45 L 526.05,641.89 L 525.89,641.58 M 321.45,430.55 L 320.75,429.85 L 319.79,428.27 L 319.37,427.46 L 318.94,425.75 L 318.79,424.89 L 318.86,423.16 L 318.95,422.31 L 319.47,420.67 L 319.78,419.88 L 320.71,418.44 L 321.22,417.76 L 322.51,416.64 L 323.19,416.13 L 324.80,415.44 L 327.53,415.00 L 328.73,415.00 L 331.03,415.77 L 332.14,416.26 L 334.06,417.80 L 334.94,418.64 L 336.19,420.68 L 336.45,421.20 L 336.79,422.31 L 337.00,424.00 L 337.00,424.95 L 336.55,426.67 L 336.26,427.51 L 335.32,428.97 L 334.80,429.66 L 333.49,430.81 L 332.79,431.33 L 331.23,432.11 L 330.42,432.45 L 328.72,432.81 L 327.86,432.94 L 326.13,432.84 L 325.28,432.72 L 323.65,432.11 L 322.86,431.73 M 345.66,431.87 L 345.40,431.72 L 344.83,431.18 L 344.54,430.88 L 343.94,430.11 L 342.39,427.40 L 342.09,426.66 L 341.70,425.51 L 341.55,424.96 L 341.47,424.00 L 341.47,423.51 L 341.71,422.48 L 342.40,420.58 L 342.81,419.59 L 343.82,418.04 L 344.36,417.33 L 345.66,416.31 L 346.35,415.86 L 348.02,415.32 L 351.01,415.00 L 351.55,415.00 L 352.63,415.21 L 353.17,415.35 L 354.23,415.80 L 355.27,416.31 L 357.11,417.89 L 357.97,418.75 L 359.20,420.78 L 359.45,421.30 L 359.79,422.38 L 360.00,424.00 L 360.00,424.82 L 359.62,426.35 L 359.38,427.10 L 358.57,428.46 L 358.13,429.11 L 356.99,430.25 L 356.38,430.78 L 355.00,431.65 L 354.28,432.04 L 352.74,432.58 L 351.95,432.81 L 350.34,432.98 L 349.53,433.01 L 347.93,432.76 L 347.15,432.58 M 141.26,424.49 L 139.55,424.11 L 135.80,422.86 L 133.90,422.16 L 130.03,420.38 L 128.12,419.44 L 124.50,417.32 L 119.74,413.94 L 119.25,413.53 L 118.03,412.31 L 117.39,411.65 L 116.01,410.06 L 112.09,404.89 L 110.81,402.97 L 108.69,398.93 L 107.71,396.88 L 106.21,392.61 L 105.53,390.46 L 104.62,386.06 L 104.25,383.85 L 103.95,379.38 L 103.87,377.14 L 104.19,372.68 L 104.42,370.45 L 105.34,366.07 L 105.88,363.89 L 107.41,359.66 L 110.41,353.57 L 110.79,352.91 L 111.82,351.46 L 112.37,350.72 L 113.67,349.16 L 115.03,347.59 L 118.25,344.39 L 119.90,342.83 L 123.26,340.09 L 124.08,339.45 L 125.65,338.37 L 127.81,337.10 L 131.97,334.98 L 134.98,341.63 L 135.40,342.54 L 136.15,344.30 L 136.51,345.15 L 137.10,346.65 L 137.37,347.35 L 137.74,348.43 L 137.96,349.39 L 137.96,349.54 L 137.63,350.04 L 137.43,350.31 L 136.76,350.98 L 133.93,353.26 L 132.21,354.46 L 129.31,357.40 L 127.96,358.95 L 125.81,362.46 L 124.84,364.27 L 123.47,368.17 L 122.88,370.16 L 122.30,374.27 L 122.11,376.33 L 122.33,380.47 L 122.54,382.52 L 123.59,386.50 L 124.21,388.46 L 126.10,392.10 L 129.88,396.98 L 131.30,398.39 L 134.48,400.70 L 136.11,401.77 L 139.63,403.37 L 141.42,404.09 L 145.16,404.99 L 147.05,405.35 L 150.87,405.55 L 152.79,405.57 L 156.58,405.06 L 158.46,404.72 L 162.09,403.51 L 163.87,402.82 L 167.21,400.91 L 171.76,397.24 L 172.58,396.42 L 173.96,394.87 L 174.61,394.09 L 175.67,392.46 L 176.16,391.62 L 176.94,389.71 L 177.30,388.70 L 177.85,386.28 L 178.10,384.99 L 178.45,381.85 L 178.60,380.17 L 178.80,376.10 L 178.84,375.01 L 178.90,372.62 L 178.92,371.39 L 178.96,368.70 L 178.97,367.31 L 178.99,364.28 L 179.00,359.32 L 179.00,335.00 L 189.03,335.00 L 199.07,335.00 L 198.78,360.00 L 198.50,385.00 L 213.61,385.00 L 228.72,385.00 L 229.32,379.24 L 229.47,377.75 L 229.98,374.89 L 230.27,373.48 L 231.05,370.77 L 231.47,369.43 L 232.50,366.89 L 233.05,365.64 L 234.33,363.28 L 235.00,362.12 L 236.53,359.94 L 237.33,358.87 L 239.10,356.89 L 240.01,355.92 L 242.01,354.14 L 245.28,351.72 L 247.02,350.57 L 250.20,348.83 L 251.77,348.05 L 254.83,346.96 L 256.38,346.48 L 259.64,345.95 L 265.09,345.67 L 267.21,345.68 L 271.34,346.36 L 273.37,346.80 L 277.26,348.27 L 279.16,349.10 L 282.73,351.28 L 284.46,352.45 L 287.61,355.25 L 289.12,356.72 L 291.77,360.06 L 293.03,361.79 L 295.09,365.58 L 296.04,367.52 L 297.43,371.69 L 298.66,378.25 L 299.29,385.00 L 316.64,385.00 L 334.00,385.00 L 334.00,360.00 L 334.00,335.00 L 343.00,335.00 L 352.00,335.00 L 352.00,360.00 L 352.00,385.00 L 367.50,385.00 L 383.00,385.00 L 383.00,346.50 L 383.00,308.00 L 392.00,308.00 L 401.00,308.00 L 401.00,356.00 L 401.00,404.00 L 345.51,404.00 L 290.02,404.00 L 285.57,407.39 L 283.91,408.66 L 280.63,410.64 L 278.98,411.54 L 275.57,412.84 L 273.84,413.42 L 270.12,414.10 L 264.00,414.50 L 261.82,414.50 L 257.88,414.10 L 255.96,413.83 L 252.43,412.84 L 250.69,412.27 L 247.37,410.64 L 242.43,407.39 L 237.98,404.00 L 215.00,404.00 L 192.01,404.00 L 185.26,410.77 L 183.62,412.41 L 180.31,415.28 L 178.64,416.65 L 175.26,418.98 L 173.56,420.07 L 170.09,421.86 L 168.34,422.69 L 164.76,423.94 L 162.95,424.51 L 159.24,425.24 L 157.37,425.54 L 153.51,425.76 L 151.56,425.80 L 147.52,425.50 L 145.49,425.29 M 271.65,393.93 L 273.04,393.25 L 275.31,391.56 L 276.36,390.65 L 277.92,388.50 L 278.62,387.37 L 279.48,384.74 L 280.00,380.28 L 280.00,379.23 L 279.75,377.27 L 279.58,376.32 L 279.02,374.55 L 278.71,373.69 L 277.88,372.12 L 277.44,371.35 L 276.38,369.99 L 275.82,369.33 L 274.57,368.18 L 273.92,367.63 L 272.51,366.70 L 271.06,365.83 L 267.84,364.79 L 266.20,364.39 L 262.82,364.36 L 261.98,364.42 L 260.31,364.74 L 259.49,364.93 L 257.88,365.53 L 257.09,365.86 L 255.57,366.74 L 254.83,367.21 L 253.45,368.39 L 252.78,369.01 L 251.57,370.48 L 249.98,373.04 L 249.53,373.92 L 248.88,375.67 L 248.60,376.54 L 248.26,378.25 L 248.13,379.11 L 248.08,380.78 L 248.09,381.60 L 248.32,383.20 L 248.60,384.79 L 249.88,387.66 L 250.63,389.03 L 252.71,391.37 L 253.84,392.45 L 256.56,394.09 L 257.98,394.81 L 261.16,395.59 L 261.98,395.72 L 263.67,395.80 L 264.52,395.81 L 266.28,395.61 L 267.16,395.48 L 268.94,395.00 L 269.84,394.72 M 419.00,356.00 L 419.00,308.00 L 428.50,308.00 L 438.00,308.00 L 438.00,356.00 L 438.00,404.00 L 428.50,404.00 L 419.00,404.00 L 419.00,356.00 M 503.37,399.04 L 502.17,398.35 L 499.95,396.76 L 498.87,395.93 L 496.89,394.08 L 495.94,393.12 L 494.23,391.02 L 493.40,389.94 L 491.96,387.60 L 491.28,386.41 L 490.11,383.86 L 489.57,382.56 L 488.70,379.81 L 488.30,378.42 L 487.72,375.49 L 487.21,370.92 L 487.06,368.43 L 487.32,363.79 L 487.55,361.53 L 488.53,357.34 L 489.11,355.31 L 490.80,351.60 L 491.73,349.81 L 494.11,346.59 L 495.39,345.05 L 498.44,342.35 L 500.05,341.07 L 503.75,338.91 L 505.69,337.90 L 510.03,336.30 L 517.25,334.55 L 521.00,333.91 L 521.00,343.25 L 521.00,352.59 L 516.51,353.79 L 515.69,354.00 L 514.18,354.62 L 513.45,354.96 L 512.11,355.81 L 511.46,356.26 L 510.31,357.32 L 509.76,357.87 L 508.80,359.13 L 508.35,359.78 L 507.60,361.22 L 507.25,361.96 L 506.72,363.56 L 506.49,364.38 L 506.19,366.13 L 506.00,368.90 L 506.00,370.64 L 506.44,373.58 L 506.74,374.98 L 507.88,377.41 L 508.55,378.59 L 510.54,380.75 L 514.61,383.97 L 515.59,384.63 L 517.08,385.54 L 517.77,385.93 L 518.83,386.36 L 519.32,386.52 L 520.11,386.52 L 521.20,386.11 L 521.45,385.95 L 522.25,385.69 L 522.70,385.58 L 523.83,385.39 L 525.01,385.23 L 527.93,385.13 L 529.42,385.12 L 532.37,385.33 L 533.08,385.40 L 534.36,385.61 L 536.00,386.00 L 538.50,386.80 L 535.75,386.90 L 534.99,386.93 L 533.81,387.23 L 533.56,387.31 L 533.22,387.52 L 533.00,387.87 L 533.00,387.99 L 532.66,388.25 L 532.45,388.38 L 531.75,388.64 L 528.75,389.26 L 528.14,389.33 L 526.63,389.73 L 525.83,389.97 L 524.05,390.63 L 522.22,391.36 L 518.31,393.32 L 517.36,393.82 L 515.55,394.88 L 514.68,395.41 L 513.13,396.45 L 512.41,396.96 L 511.26,397.92 L 510.12,399.18 L 509.87,399.57 L 509.57,400.12 L 509.45,400.35 L 509.38,400.62 L 509.38,400.71 L 509.55,400.72 L 510.08,400.45 L 510.47,400.21 L 510.80,400.19 L 510.60,400.85 L 510.35,401.25 L 509.86,401.71 L 509.58,401.88 L 508.77,401.79 L 508.53,401.73 L 507.93,401.49 L 507.60,401.35 L 506.80,400.95 L 506.36,400.72 L 505.30,400.14 L 504.73,399.82 M 590.20,356.25 L 590.00,335.00 L 599.00,335.00 L 599.99,335.00 L 601.67,335.01 L 602.46,335.02 L 603.75,335.06 L 604.36,335.08 L 605.33,335.15 L 605.78,335.19 L 606.46,335.30 L 607.08,335.42 L 607.66,335.83 L 607.90,336.75 L 607.86,337.43 L 607.57,338.96 L 607.40,339.71 L 606.98,341.03 L 606.76,341.62 L 606.37,342.27 L 606.28,342.37 L 606.14,342.37 L 606.00,342.00 L 605.97,341.79 L 605.86,341.61 L 605.79,341.56 L 605.62,341.67 L 605.00,343.00 L 604.20,345.50 L 604.10,342.75 L 604.07,341.90 L 603.87,340.83 L 603.73,340.40 L 603.11,340.18 L 602.92,340.18 L 602.41,340.33 L 602.14,340.44 L 601.44,340.80 L 601.07,341.01 L 600.15,341.58 L 598.48,342.67 L 597.82,343.12 L 596.73,343.87 L 596.22,344.24 L 595.40,344.89 L 594.64,345.53 L 593.76,346.85 L 593.58,347.21 L 593.33,348.05 L 593.22,348.50 L 593.07,349.56 L 593.01,350.13 L 592.93,351.50 L 592.85,354.00 L 592.83,354.69 L 592.79,355.83 L 592.77,356.36 L 592.73,357.19 L 592.71,357.57 L 592.67,358.10 L 592.64,358.33 L 592.59,358.58 L 592.57,358.67 L 592.50,358.65 L 592.47,358.60 L 592.39,358.31 L 592.09,356.50 L 592.04,356.18 L 591.95,355.79 L 591.90,355.64 L 591.81,355.59 L 591.76,355.61 L 591.67,355.91 L 591.62,356.10 L 591.52,356.73 L 591.48,357.09 L 591.38,358.06 L 591.33,358.59 L 591.24,359.88 L 591.19,360.57 L 591.10,362.20 L 590.96,365.00 L 590.90,366.39 L 590.79,368.60 L 590.74,369.61 L 590.66,371.00 L 590.62,371.59 L 590.55,372.13 L 590.52,372.28 L 590.46,371.91 L 590.44,371.61 L 590.39,370.29 L 590.37,369.50 L 590.33,367.18 L 590.31,365.89 L 590.27,362.53 L 590.26,361.62 L 590.24,359.59 L 590.22,358.55 M 626.22,337.75 L 626.00,308.00 L 635.00,308.00 L 644.00,308.00 L 643.90,316.75 L 643.88,318.14 L 643.81,320.30 L 643.76,321.27 L 643.63,322.56 L 643.56,323.09 L 643.38,323.48 L 643.05,323.00 L 642.31,320.50 L 641.79,323.00 L 641.69,323.49 L 641.53,324.03 L 641.46,324.23 L 641.35,324.19 L 641.30,324.10 L 641.23,323.45 L 641.14,321.75 L 641.10,320.67 L 640.87,319.27 L 640.78,318.98 L 640.54,318.58 L 640.40,318.40 L 640.01,318.23 L 639.80,318.17 L 639.24,318.22 L 638.94,318.27 L 638.17,318.53 L 637.76,318.68 L 636.75,319.14 L 634.92,320.04 L 633.71,320.66 L 631.96,322.00 L 631.18,322.72 L 630.15,324.56 L 629.93,325.07 L 629.60,326.25 L 629.45,326.87 L 629.24,328.30 L 629.15,329.06 L 629.05,330.80 L 628.98,333.82 L 628.98,334.97 L 628.92,336.72 L 628.88,337.51 L 628.74,338.53 L 628.66,338.95 L 628.44,339.28 L 628.02,339.00 L 627.94,338.88 L 627.79,338.88 L 627.72,338.93 L 627.58,339.28 L 627.51,339.50 L 627.39,340.20 L 627.33,340.59 L 627.22,341.63 L 627.17,342.19 L 627.08,343.57 L 627.03,344.31 L 626.95,346.03 L 626.91,346.94 L 626.84,349.01 L 626.75,352.50 L 626.73,353.53 L 626.69,354.91 L 626.66,355.48 L 626.61,355.98 L 626.59,356.12 L 626.54,355.77 L 626.52,355.50 L 626.47,354.35 L 626.44,353.69 L 626.40,351.78 L 626.37,350.74 L 626.33,348.12 L 626.31,346.72 L 626.27,343.42 L 626.25,341.69 M 537.52,349.72 L 536.55,348.75 L 535.03,346.60 L 534.72,346.09 L 534.28,345.16 L 534.00,344.05 L 534.00,343.08 L 534.50,341.16 L 534.82,340.23 L 535.86,338.52 L 536.44,337.71 L 537.90,336.39 L 540.44,335.02 L 541.20,334.77 L 542.72,334.57 L 543.48,334.52 L 544.96,334.69 L 545.69,334.82 L 547.08,335.32 L 547.76,335.61 L 548.99,336.40 L 549.59,336.82 L 550.62,337.86 L 551.11,338.41 L 551.89,339.66 L 552.24,340.31 L 552.71,341.74 L 553.00,344.03 L 553.00,344.39 L 552.78,345.21 L 552.63,345.62 L 552.15,346.50 L 551.62,347.39 L 550.01,349.15 L 549.15,350.00 L 547.18,351.39 L 544.27,352.62 L 543.58,352.76 L 542.47,352.82 L 541.95,352.81 L 540.99,352.50 L 540.51,352.30 L 539.46,351.52 L 538.90,351.07 M 561.83,351.33 L 560.66,350.59 L 558.99,348.85 L 558.26,347.94 L 557.47,345.90 L 557.18,344.85 L 557.29,342.59 L 558.48,339.03 L 559.01,338.01 L 560.60,336.44 L 561.46,335.75 L 563.52,334.92 L 564.58,334.60 L 566.88,334.56 L 570.32,335.48 L 571.08,335.84 L 572.36,336.69 L 572.96,337.13 L 573.94,338.13 L 574.38,338.64 L 575.05,339.75 L 575.34,340.32 L 575.68,341.51 L 575.81,342.11 L 575.83,343.36 L 575.80,343.99 L 575.48,345.26 L 575.28,345.89 L 574.62,347.15 L 573.25,348.99 L 572.40,349.92 L 570.53,351.26 L 569.59,351.83 L 567.62,352.43 L 566.63,352.63 L 564.66,352.46 L 563.68,352.28 M 152.82,347.13 L 151.78,346.20 L 150.50,344.18 L 149.97,343.16 L 149.61,341.06 L 149.53,340.02 L 149.96,338.02 L 150.26,337.04 L 151.35,335.31 L 151.96,334.49 L 153.59,333.19 L 154.45,332.62 L 156.48,331.93 L 157.54,331.68 L 159.84,331.77 L 163.46,332.98 L 164.16,333.35 L 165.30,334.35 L 165.83,334.88 L 166.63,336.13 L 166.98,336.77 L 167.44,338.18 L 167.62,338.90 L 167.72,340.39 L 167.73,341.13 L 167.49,342.61 L 167.33,343.34 L 166.74,344.71 L 166.40,345.38 L 165.46,346.58 L 163.65,348.07 L 162.57,348.73 L 160.65,349.51 L 159.73,349.81 L 158.01,349.85 L 157.17,349.78 L 155.48,349.06 L 154.63,348.61 Z" fill="rgba(235,206,102,1)"/>
</g>
</svg>